<?xml version="1.0" encoding="UTF-8"?>
<svg id="svg1" xmlns="http://www.w3.org/2000/svg" version="1.1" width="20.3200mm" height="128.5169mm" viewBox="0 0 57.6 364.3">
  <!-- Generator: Adobe Illustrator 30.8.1, SVG Export Plug-In . SVG Version: 2.1.4 Build 1)  -->
  <rect id="rect1" fill="#e54e4e" y="0" width="57.6" height="364.3"/>
  <g>
    <path fill="#ffbdcb" d="M5.5,2.8c.4,0,.8.1,1,.3.2.2.3.5.3.9s-.1.7-.3.9-.5.3-1,.3h-1.3v1.8h-.6V2.8h1.9ZM5.3,4.9c.3,0,.6,0,.7-.2.1-.1.2-.3.2-.6s0-.5-.2-.6c-.2-.1-.4-.2-.7-.2h-1.1v1.6h1.1Z"/>
    <path fill="#ffbdcb" d="M16.1,2.8v.5h-2.4v1.4h2.2v.5h-2.2v1.5h2.4v.5h-3V2.8h3Z"/>
    <path fill="#ffbdcb" d="M24.6,2.8c.4,0,.7.1,1,.3.2.2.3.5.3.8s0,.5-.2.7c-.1.2-.3.3-.6.4h0c.1,0,.2,0,.3.1s.1.1.2.2c0,0,0,.2.1.3,0,0,0,.2,0,.3,0,.1,0,.2,0,.3,0,.1,0,.2,0,.3,0,.1,0,.2,0,.3,0,0,0,.2.1.2h-.6s0-.1,0-.2c0,0,0-.2,0-.3,0,0,0-.2,0-.3,0-.1,0-.2,0-.3,0-.1,0-.2,0-.3,0,0,0-.2-.1-.2,0,0-.1-.1-.2-.2s-.2,0-.3,0h-1.4v1.8h-.6V2.8h2ZM24.7,4.8c.1,0,.2,0,.3-.1s.2-.1.2-.2c0,0,0-.2,0-.4s0-.4-.2-.5c-.1-.1-.3-.2-.6-.2h-1.4v1.5h1.2c.1,0,.3,0,.4,0Z"/>
    <path fill="#ffbdcb" d="M33,2.8v3.8h2.3v.5h-2.8V2.8h.6Z"/>
    <path fill="#ffbdcb" d="M43.3,2.8l1.7,4.3h-.6l-.5-1.3h-1.8l-.5,1.3h-.6l1.7-4.3h.6ZM43.7,5.3l-.7-2h0l-.7,2h1.5Z"/>
    <path fill="#ffbdcb" d="M53.2,3.4c-.2-.1-.4-.2-.7-.2s-.2,0-.4,0c-.1,0-.2,0-.3.1s-.2.1-.2.2c0,0,0,.2,0,.4s0,.2.1.3.2.1.3.2c.1,0,.3,0,.4.1s.3,0,.5.1.3,0,.5.1.3.1.4.2c.1,0,.2.2.3.3,0,.1.1.3.1.5s0,.4-.2.6c-.1.2-.2.3-.4.4s-.3.2-.5.2-.4,0-.6,0-.5,0-.7,0c-.2,0-.4-.2-.6-.3s-.3-.3-.4-.5c0-.2-.1-.4-.1-.7h.5c0,.2,0,.3.1.5,0,.1.2.2.3.3.1,0,.2.1.4.2s.3,0,.5,0,.3,0,.4,0c.1,0,.2,0,.4-.1.1,0,.2-.1.3-.2,0-.1,0-.2,0-.4s0-.3-.1-.4c0,0-.2-.2-.3-.2-.1,0-.3-.1-.4-.1-.2,0-.3,0-.5-.1s-.3,0-.5-.1-.3-.1-.4-.2c-.1,0-.2-.2-.3-.3s-.1-.3-.1-.5,0-.4.1-.6c0-.2.2-.3.4-.4.1-.1.3-.2.5-.2.2,0,.4,0,.6,0s.4,0,.6,0c.2,0,.4.1.5.2.1.1.3.3.3.4,0,.2.1.4.1.6h-.5c0-.3-.1-.5-.3-.7Z"/>
    <path fill="#ffbdcb" d="M5.5,12.2c.4,0,.8.1,1,.3.2.2.3.5.3.9s-.1.7-.3.9-.5.3-1,.3h-1.3v1.8h-.6v-4.3h1.9ZM5.3,14.2c.3,0,.6,0,.7-.2.1-.1.2-.3.2-.6s0-.5-.2-.6c-.2-.1-.4-.2-.7-.2h-1.1v1.6h1.1Z"/>
    <path fill="#ffbdcb" d="M16.1,12.2v.5h-2.4v1.4h2.2v.5h-2.2v1.5h2.4v.5h-3v-4.3h3Z"/>
    <path fill="#ffbdcb" d="M24.6,12.2c.4,0,.7.1,1,.3.2.2.3.5.3.8s0,.5-.2.7c-.1.2-.3.3-.6.4h0c.1,0,.2,0,.3.1s.1.1.2.2c0,0,0,.2.1.3,0,0,0,.2,0,.3,0,.1,0,.2,0,.3,0,.1,0,.2,0,.3,0,.1,0,.2,0,.3,0,0,0,.2.1.2h-.6s0-.1,0-.2c0,0,0-.2,0-.3,0,0,0-.2,0-.3,0-.1,0-.2,0-.3,0-.1,0-.2,0-.3,0,0,0-.2-.1-.2,0,0-.1-.1-.2-.2s-.2,0-.3,0h-1.4v1.8h-.6v-4.3h2ZM24.7,14.1c.1,0,.2,0,.3-.1s.2-.1.2-.2c0,0,0-.2,0-.4s0-.4-.2-.5c-.1-.1-.3-.2-.6-.2h-1.4v1.5h1.2c.1,0,.3,0,.4,0Z"/>
    <path fill="#ffbdcb" d="M33,12.2v3.8h2.3v.5h-2.8v-4.3h.6Z"/>
    <path fill="#ffbdcb" d="M43.3,12.2l1.7,4.3h-.6l-.5-1.3h-1.8l-.5,1.3h-.6l1.7-4.3h.6ZM43.7,14.7l-.7-2h0l-.7,2h1.5Z"/>
    <path fill="#ffbdcb" d="M53.2,12.7c-.2-.1-.4-.2-.7-.2s-.2,0-.4,0c-.1,0-.2,0-.3.1s-.2.1-.2.2c0,0,0,.2,0,.4s0,.2.1.3.2.1.3.2c.1,0,.3,0,.4.1s.3,0,.5.1.3,0,.5.1.3.1.4.2c.1,0,.2.2.3.3,0,.1.1.3.1.5s0,.4-.2.6c-.1.2-.2.3-.4.4s-.3.2-.5.2-.4,0-.6,0-.5,0-.7,0c-.2,0-.4-.2-.6-.3s-.3-.3-.4-.5c0-.2-.1-.4-.1-.7h.5c0,.2,0,.3.1.5,0,.1.2.2.3.3.1,0,.2.1.4.2s.3,0,.5,0,.3,0,.4,0c.1,0,.2,0,.4-.1.1,0,.2-.1.3-.2,0-.1,0-.2,0-.4s0-.3-.1-.4c0,0-.2-.2-.3-.2-.1,0-.3-.1-.4-.1-.2,0-.3,0-.5-.1s-.3,0-.5-.1-.3-.1-.4-.2c-.1,0-.2-.2-.3-.3s-.1-.3-.1-.5,0-.4.1-.6c0-.2.2-.3.4-.4.1-.1.3-.2.5-.2.2,0,.4,0,.6,0s.4,0,.6,0c.2,0,.4.1.5.2.1.1.3.3.3.4,0,.2.1.4.1.6h-.5c0-.3-.1-.5-.3-.7Z"/>
    <path fill="#ffbdcb" d="M5.5,21.5c.4,0,.8.1,1,.3.2.2.3.5.3.9s-.1.7-.3.9-.5.3-1,.3h-1.3v1.8h-.6v-4.3h1.9ZM5.3,23.5c.3,0,.6,0,.7-.2.1-.1.2-.3.2-.6s0-.5-.2-.6c-.2-.1-.4-.2-.7-.2h-1.1v1.6h1.1Z"/>
    <path fill="#ffbdcb" d="M16.1,21.5v.5h-2.4v1.4h2.2v.5h-2.2v1.5h2.4v.5h-3v-4.3h3Z"/>
    <path fill="#ffbdcb" d="M24.6,21.5c.4,0,.7.1,1,.3.2.2.3.5.3.8s0,.5-.2.7c-.1.2-.3.3-.6.4h0c.1,0,.2,0,.3.1s.1.1.2.2c0,0,0,.2.1.3,0,0,0,.2,0,.3,0,.1,0,.2,0,.3,0,.1,0,.2,0,.3,0,.1,0,.2,0,.3,0,0,0,.2.1.2h-.6s0-.1,0-.2c0,0,0-.2,0-.3,0,0,0-.2,0-.3,0-.1,0-.2,0-.3,0-.1,0-.2,0-.3,0,0,0-.2-.1-.2,0,0-.1-.1-.2-.2s-.2,0-.3,0h-1.4v1.8h-.6v-4.3h2ZM24.7,23.4c.1,0,.2,0,.3-.1s.2-.1.2-.2c0,0,0-.2,0-.4s0-.4-.2-.5c-.1-.1-.3-.2-.6-.2h-1.4v1.5h1.2c.1,0,.3,0,.4,0Z"/>
    <path fill="#ffbdcb" d="M33,21.5v3.8h2.3v.5h-2.8v-4.3h.6Z"/>
    <path fill="#ffbdcb" d="M43.3,21.5l1.7,4.3h-.6l-.5-1.3h-1.8l-.5,1.3h-.6l1.7-4.3h.6ZM43.7,24l-.7-2h0l-.7,2h1.5Z"/>
    <path fill="#ffbdcb" d="M53.2,22.1c-.2-.1-.4-.2-.7-.2s-.2,0-.4,0c-.1,0-.2,0-.3.1s-.2.1-.2.2c0,0,0,.2,0,.4s0,.2.1.3.2.1.3.2c.1,0,.3,0,.4.1s.3,0,.5.1.3,0,.5.1.3.1.4.2c.1,0,.2.2.3.3,0,.1.1.3.1.5s0,.4-.2.6c-.1.2-.2.3-.4.4s-.3.2-.5.2-.4,0-.6,0-.5,0-.7,0c-.2,0-.4-.2-.6-.3s-.3-.3-.4-.5c0-.2-.1-.4-.1-.7h.5c0,.2,0,.3.1.5,0,.1.2.2.3.3.1,0,.2.1.4.2s.3,0,.5,0,.3,0,.4,0c.1,0,.2,0,.4-.1.1,0,.2-.1.3-.2,0-.1,0-.2,0-.4s0-.3-.1-.4c0,0-.2-.2-.3-.2-.1,0-.3-.1-.4-.1-.2,0-.3,0-.5-.1s-.3,0-.5-.1-.3-.1-.4-.2c-.1,0-.2-.2-.3-.3s-.1-.3-.1-.5,0-.4.1-.6c0-.2.2-.3.4-.4.1-.1.3-.2.5-.2.2,0,.4,0,.6,0s.4,0,.6,0c.2,0,.4.1.5.2.1.1.3.3.3.4,0,.2.1.4.1.6h-.5c0-.3-.1-.5-.3-.7Z"/>
    <path fill="#ffbdcb" d="M5.5,30.8c.4,0,.8.1,1,.3.2.2.3.5.3.9s-.1.7-.3.9-.5.3-1,.3h-1.3v1.8h-.6v-4.3h1.9ZM5.3,32.9c.3,0,.6,0,.7-.2.1-.1.2-.3.2-.6s0-.5-.2-.6c-.2-.1-.4-.2-.7-.2h-1.1v1.6h1.1Z"/>
    <path fill="#ffbdcb" d="M16.1,30.8v.5h-2.4v1.4h2.2v.5h-2.2v1.5h2.4v.5h-3v-4.3h3Z"/>
    <path fill="#ffbdcb" d="M24.6,30.8c.4,0,.7.1,1,.3.2.2.3.5.3.8s0,.5-.2.7c-.1.2-.3.3-.6.4h0c.1,0,.2,0,.3.1s.1.1.2.2c0,0,0,.2.1.3,0,0,0,.2,0,.3,0,.1,0,.2,0,.3,0,.1,0,.2,0,.3,0,.1,0,.2,0,.3,0,0,0,.2.1.2h-.6s0-.1,0-.2c0,0,0-.2,0-.3,0,0,0-.2,0-.3,0-.1,0-.2,0-.3,0-.1,0-.2,0-.3,0,0,0-.2-.1-.2,0,0-.1-.1-.2-.2s-.2,0-.3,0h-1.4v1.8h-.6v-4.3h2ZM24.7,32.7c.1,0,.2,0,.3-.1s.2-.1.2-.2c0,0,0-.2,0-.4s0-.4-.2-.5c-.1-.1-.3-.2-.6-.2h-1.4v1.5h1.2c.1,0,.3,0,.4,0Z"/>
    <path fill="#ffbdcb" d="M33,30.8v3.8h2.3v.5h-2.8v-4.3h.6Z"/>
    <path fill="#ffbdcb" d="M43.3,30.8l1.7,4.3h-.6l-.5-1.3h-1.8l-.5,1.3h-.6l1.7-4.3h.6ZM43.7,33.3l-.7-2h0l-.7,2h1.5Z"/>
    <path fill="#ffbdcb" d="M53.2,31.4c-.2-.1-.4-.2-.7-.2s-.2,0-.4,0c-.1,0-.2,0-.3.1s-.2.1-.2.2c0,0,0,.2,0,.4s0,.2.1.3.2.1.3.2c.1,0,.3,0,.4.1s.3,0,.5.1.3,0,.5.1.3.1.4.2c.1,0,.2.2.3.3,0,.1.1.3.1.5s0,.4-.2.6c-.1.2-.2.3-.4.4s-.3.2-.5.2-.4,0-.6,0-.5,0-.7,0c-.2,0-.4-.2-.6-.3s-.3-.3-.4-.5c0-.2-.1-.4-.1-.7h.5c0,.2,0,.3.1.5,0,.1.2.2.3.3.1,0,.2.1.4.2s.3,0,.5,0,.3,0,.4,0c.1,0,.2,0,.4-.1.1,0,.2-.1.3-.2,0-.1,0-.2,0-.4s0-.3-.1-.4c0,0-.2-.2-.3-.2-.1,0-.3-.1-.4-.1-.2,0-.3,0-.5-.1s-.3,0-.5-.1-.3-.1-.4-.2c-.1,0-.2-.2-.3-.3s-.1-.3-.1-.5,0-.4.1-.6c0-.2.2-.3.4-.4.1-.1.3-.2.5-.2.2,0,.4,0,.6,0s.4,0,.6,0c.2,0,.4.1.5.2.1.1.3.3.3.4,0,.2.1.4.1.6h-.5c0-.3-.1-.5-.3-.7Z"/>
    <path fill="#ffbdcb" d="M5.5,40.1c.4,0,.8.1,1,.3.2.2.3.5.3.9s-.1.7-.3.9-.5.3-1,.3h-1.3v1.8h-.6v-4.3h1.9ZM5.3,42.2c.3,0,.6,0,.7-.2.1-.1.2-.3.2-.6s0-.5-.2-.6c-.2-.1-.4-.2-.7-.2h-1.1v1.6h1.1Z"/>
    <path fill="#ffbdcb" d="M16.1,40.1v.5h-2.4v1.4h2.2v.5h-2.2v1.5h2.4v.5h-3v-4.3h3Z"/>
    <path fill="#ffbdcb" d="M24.6,40.1c.4,0,.7.1,1,.3.2.2.3.5.3.8s0,.5-.2.7c-.1.2-.3.3-.6.4h0c.1,0,.2,0,.3.1s.1.1.2.2c0,0,0,.2.1.3,0,0,0,.2,0,.3,0,.1,0,.2,0,.3,0,.1,0,.2,0,.3,0,.1,0,.2,0,.3,0,0,0,.2.1.2h-.6s0-.1,0-.2c0,0,0-.2,0-.3,0,0,0-.2,0-.3,0-.1,0-.2,0-.3,0-.1,0-.2,0-.3,0,0,0-.2-.1-.2,0,0-.1-.1-.2-.2s-.2,0-.3,0h-1.4v1.8h-.6v-4.3h2ZM24.7,42.1c.1,0,.2,0,.3-.1s.2-.1.2-.2c0,0,0-.2,0-.4s0-.4-.2-.5c-.1-.1-.3-.2-.6-.2h-1.4v1.5h1.2c.1,0,.3,0,.4,0Z"/>
    <path fill="#ffbdcb" d="M33,40.1v3.8h2.3v.5h-2.8v-4.3h.6Z"/>
    <path fill="#ffbdcb" d="M43.3,40.1l1.7,4.3h-.6l-.5-1.3h-1.8l-.5,1.3h-.6l1.7-4.3h.6ZM43.7,42.6l-.7-2h0l-.7,2h1.5Z"/>
    <path fill="#ffbdcb" d="M53.2,40.7c-.2-.1-.4-.2-.7-.2s-.2,0-.4,0c-.1,0-.2,0-.3.1s-.2.1-.2.2c0,0,0,.2,0,.4s0,.2.1.3.2.1.3.2c.1,0,.3,0,.4.1s.3,0,.5.1.3,0,.5.1.3.1.4.2c.1,0,.2.2.3.3,0,.1.1.3.1.5s0,.4-.2.6c-.1.2-.2.3-.4.4s-.3.2-.5.2-.4,0-.6,0-.5,0-.7,0c-.2,0-.4-.2-.6-.3s-.3-.3-.4-.5c0-.2-.1-.4-.1-.7h.5c0,.2,0,.3.1.5,0,.1.2.2.3.3.1,0,.2.1.4.2s.3,0,.5,0,.3,0,.4,0c.1,0,.2,0,.4-.1.1,0,.2-.1.3-.2,0-.1,0-.2,0-.4s0-.3-.1-.4c0,0-.2-.2-.3-.2-.1,0-.3-.1-.4-.1-.2,0-.3,0-.5-.1s-.3,0-.5-.1-.3-.1-.4-.2c-.1,0-.2-.2-.3-.3s-.1-.3-.1-.5,0-.4.1-.6c0-.2.2-.3.4-.4.1-.1.3-.2.5-.2.2,0,.4,0,.6,0s.4,0,.6,0c.2,0,.4.1.5.2.1.1.3.3.3.4,0,.2.1.4.1.6h-.5c0-.3-.1-.5-.3-.7Z"/>
    <path fill="#ffbdcb" d="M5.5,49.5c.4,0,.8.1,1,.3.2.2.3.5.3.9s-.1.7-.3.9-.5.3-1,.3h-1.3v1.8h-.6v-4.3h1.9ZM5.3,51.5c.3,0,.6,0,.7-.2.1-.1.2-.3.2-.6s0-.5-.2-.6c-.2-.1-.4-.2-.7-.2h-1.1v1.6h1.1Z"/>
    <path fill="#ffbdcb" d="M16.1,49.5v.5h-2.4v1.4h2.2v.5h-2.2v1.5h2.4v.5h-3v-4.3h3Z"/>
    <path fill="#ffbdcb" d="M24.6,49.5c.4,0,.7.1,1,.3.2.2.3.5.3.8s0,.5-.2.7c-.1.2-.3.3-.6.4h0c.1,0,.2,0,.3.1s.1.1.2.2c0,0,0,.2.1.3,0,0,0,.2,0,.3,0,.1,0,.2,0,.3,0,.1,0,.2,0,.3,0,.1,0,.2,0,.3,0,0,0,.2.1.2h-.6s0-.1,0-.2c0,0,0-.2,0-.3,0,0,0-.2,0-.3,0-.1,0-.2,0-.3,0-.1,0-.2,0-.3,0,0,0-.2-.1-.2,0,0-.1-.1-.2-.2s-.2,0-.3,0h-1.4v1.8h-.6v-4.3h2ZM24.7,51.4c.1,0,.2,0,.3-.1s.2-.1.2-.2c0,0,0-.2,0-.4s0-.4-.2-.5c-.1-.1-.3-.2-.6-.2h-1.4v1.5h1.2c.1,0,.3,0,.4,0Z"/>
    <path fill="#ffbdcb" d="M33,49.5v3.8h2.3v.5h-2.8v-4.3h.6Z"/>
    <path fill="#ffbdcb" d="M43.3,49.5l1.7,4.3h-.6l-.5-1.3h-1.8l-.5,1.3h-.6l1.7-4.3h.6ZM43.7,52l-.7-2h0l-.7,2h1.5Z"/>
    <path fill="#ffbdcb" d="M53.2,50c-.2-.1-.4-.2-.7-.2s-.2,0-.4,0c-.1,0-.2,0-.3.1s-.2.1-.2.2c0,0,0,.2,0,.4s0,.2.1.3.2.1.3.2c.1,0,.3,0,.4.1s.3,0,.5.1.3,0,.5.1.3.1.4.2c.1,0,.2.2.3.3,0,.1.1.3.1.5s0,.4-.2.6c-.1.2-.2.3-.4.4s-.3.2-.5.2-.4,0-.6,0-.5,0-.7,0c-.2,0-.4-.2-.6-.3s-.3-.3-.4-.5c0-.2-.1-.4-.1-.7h.5c0,.2,0,.3.1.5,0,.1.2.2.3.3.1,0,.2.1.4.2s.3,0,.5,0,.3,0,.4,0c.1,0,.2,0,.4-.1.1,0,.2-.1.3-.2,0-.1,0-.2,0-.4s0-.3-.1-.4c0,0-.2-.2-.3-.2-.1,0-.3-.1-.4-.1-.2,0-.3,0-.5-.1s-.3,0-.5-.1-.3-.1-.4-.2c-.1,0-.2-.2-.3-.3s-.1-.3-.1-.5,0-.4.1-.6c0-.2.2-.3.4-.4.1-.1.3-.2.5-.2.2,0,.4,0,.6,0s.4,0,.6,0c.2,0,.4.1.5.2.1.1.3.3.3.4,0,.2.1.4.1.6h-.5c0-.3-.1-.5-.3-.7Z"/>
    <path fill="#ffbdcb" d="M5.5,58.8c.4,0,.8.1,1,.3.2.2.3.5.3.9s-.1.7-.3.9-.5.3-1,.3h-1.3v1.8h-.6v-4.3h1.9ZM5.3,60.8c.3,0,.6,0,.7-.2.1-.1.2-.3.2-.6s0-.5-.2-.6c-.2-.1-.4-.2-.7-.2h-1.1v1.6h1.1Z"/>
    <path fill="#ffbdcb" d="M16.1,58.8v.5h-2.4v1.4h2.2v.5h-2.2v1.5h2.4v.5h-3v-4.3h3Z"/>
    <path fill="#ffbdcb" d="M24.6,58.8c.4,0,.7.1,1,.3.2.2.3.5.3.8s0,.5-.2.7c-.1.2-.3.3-.6.4h0c.1,0,.2,0,.3.1s.1.1.2.2c0,0,0,.2.1.3,0,0,0,.2,0,.3,0,.1,0,.2,0,.3,0,.1,0,.2,0,.3,0,.1,0,.2,0,.3,0,0,0,.2.1.2h-.6s0-.1,0-.2c0,0,0-.2,0-.3,0,0,0-.2,0-.3,0-.1,0-.2,0-.3,0-.1,0-.2,0-.3,0,0,0-.2-.1-.2,0,0-.1-.1-.2-.2s-.2,0-.3,0h-1.4v1.8h-.6v-4.3h2ZM24.7,60.7c.1,0,.2,0,.3-.1s.2-.1.2-.2c0,0,0-.2,0-.4s0-.4-.2-.5c-.1-.1-.3-.2-.6-.2h-1.4v1.5h1.2c.1,0,.3,0,.4,0Z"/>
    <path fill="#ffbdcb" d="M33,58.8v3.8h2.3v.5h-2.8v-4.3h.6Z"/>
    <path fill="#ffbdcb" d="M43.3,58.8l1.7,4.3h-.6l-.5-1.3h-1.8l-.5,1.3h-.6l1.7-4.3h.6ZM43.7,61.3l-.7-2h0l-.7,2h1.5Z"/>
    <path fill="#ffbdcb" d="M53.2,59.4c-.2-.1-.4-.2-.7-.2s-.2,0-.4,0c-.1,0-.2,0-.3.1s-.2.1-.2.2c0,0,0,.2,0,.4s0,.2.1.3.2.1.3.2c.1,0,.3,0,.4.1s.3,0,.5.1.3,0,.5.1.3.1.4.2c.1,0,.2.2.3.3,0,.1.1.3.1.5s0,.4-.2.6c-.1.2-.2.3-.4.4s-.3.2-.5.2-.4,0-.6,0-.5,0-.7,0c-.2,0-.4-.2-.6-.3s-.3-.3-.4-.5c0-.2-.1-.4-.1-.7h.5c0,.2,0,.3.1.5,0,.1.2.2.3.3.1,0,.2.1.4.2s.3,0,.5,0,.3,0,.4,0c.1,0,.2,0,.4-.1.1,0,.2-.1.3-.2,0-.1,0-.2,0-.4s0-.3-.1-.4c0,0-.2-.2-.3-.2-.1,0-.3-.1-.4-.1-.2,0-.3,0-.5-.1s-.3,0-.5-.1-.3-.1-.4-.2c-.1,0-.2-.2-.3-.3s-.1-.3-.1-.5,0-.4.1-.6c0-.2.2-.3.4-.4.1-.1.3-.2.5-.2.2,0,.4,0,.6,0s.4,0,.6,0c.2,0,.4.1.5.2.1.1.3.3.3.4,0,.2.1.4.1.6h-.5c0-.3-.1-.5-.3-.7Z"/>
    <path fill="#ffbdcb" d="M5.5,68.1c.4,0,.8.1,1,.3.2.2.3.5.3.9s-.1.7-.3.9-.5.3-1,.3h-1.3v1.8h-.6v-4.3h1.9ZM5.3,70.2c.3,0,.6,0,.7-.2.1-.1.2-.3.2-.6s0-.5-.2-.6c-.2-.1-.4-.2-.7-.2h-1.1v1.6h1.1Z"/>
    <path fill="#ffbdcb" d="M16.1,68.1v.5h-2.4v1.4h2.2v.5h-2.2v1.5h2.4v.5h-3v-4.3h3Z"/>
    <path fill="#ffbdcb" d="M24.6,68.1c.4,0,.7.1,1,.3.2.2.3.5.3.8s0,.5-.2.7c-.1.2-.3.3-.6.4h0c.1,0,.2,0,.3.1s.1.1.2.2c0,0,0,.2.1.3,0,0,0,.2,0,.3,0,.1,0,.2,0,.3,0,.1,0,.2,0,.3,0,.1,0,.2,0,.3,0,0,0,.2.1.2h-.6s0-.1,0-.2c0,0,0-.2,0-.3,0,0,0-.2,0-.3,0-.1,0-.2,0-.3,0-.1,0-.2,0-.3,0,0,0-.2-.1-.2,0,0-.1-.1-.2-.2s-.2,0-.3,0h-1.4v1.8h-.6v-4.3h2ZM24.7,70c.1,0,.2,0,.3-.1s.2-.1.2-.2c0,0,0-.2,0-.4s0-.4-.2-.5c-.1-.1-.3-.2-.6-.2h-1.4v1.5h1.2c.1,0,.3,0,.4,0Z"/>
    <path fill="#ffbdcb" d="M33,68.1v3.8h2.3v.5h-2.8v-4.3h.6Z"/>
    <path fill="#ffbdcb" d="M43.3,68.1l1.7,4.3h-.6l-.5-1.3h-1.8l-.5,1.3h-.6l1.7-4.3h.6ZM43.7,70.6l-.7-2h0l-.7,2h1.5Z"/>
    <path fill="#ffbdcb" d="M53.2,68.7c-.2-.1-.4-.2-.7-.2s-.2,0-.4,0c-.1,0-.2,0-.3.1s-.2.1-.2.2c0,0,0,.2,0,.4s0,.2.1.3.2.1.3.2c.1,0,.3,0,.4.1s.3,0,.5.1.3,0,.5.1.3.1.4.2c.1,0,.2.2.3.3,0,.1.1.3.1.5s0,.4-.2.6c-.1.2-.2.3-.4.4s-.3.2-.5.2-.4,0-.6,0-.5,0-.7,0c-.2,0-.4-.2-.6-.3s-.3-.3-.4-.5c0-.2-.1-.4-.1-.7h.5c0,.2,0,.3.1.5,0,.1.2.2.3.3.1,0,.2.1.4.2s.3,0,.5,0,.3,0,.4,0c.1,0,.2,0,.4-.1.1,0,.2-.1.3-.2,0-.1,0-.2,0-.4s0-.3-.1-.4c0,0-.2-.2-.3-.2-.1,0-.3-.1-.4-.1-.2,0-.3,0-.5-.1s-.3,0-.5-.1-.3-.1-.4-.2c-.1,0-.2-.2-.3-.3s-.1-.3-.1-.5,0-.4.1-.6c0-.2.2-.3.4-.4.1-.1.3-.2.5-.2.2,0,.4,0,.6,0s.4,0,.6,0c.2,0,.4.1.5.2.1.1.3.3.3.4,0,.2.1.4.1.6h-.5c0-.3-.1-.5-.3-.7Z"/>
    <path fill="#ffbdcb" d="M5.5,77.4c.4,0,.8.1,1,.3.2.2.3.5.3.9s-.1.7-.3.9-.5.3-1,.3h-1.3v1.8h-.6v-4.3h1.9ZM5.3,79.5c.3,0,.6,0,.7-.2.1-.1.2-.3.2-.6s0-.5-.2-.6c-.2-.1-.4-.2-.7-.2h-1.1v1.6h1.1Z"/>
    <path fill="#ffbdcb" d="M16.1,77.4v.5h-2.4v1.4h2.2v.5h-2.2v1.5h2.4v.5h-3v-4.3h3Z"/>
    <path fill="#ffbdcb" d="M24.6,77.4c.4,0,.7.1,1,.3.2.2.3.5.3.8s0,.5-.2.7c-.1.2-.3.3-.6.4h0c.1,0,.2,0,.3.1s.1.1.2.2c0,0,0,.2.1.3,0,0,0,.2,0,.3,0,.1,0,.2,0,.3,0,.1,0,.2,0,.3,0,.1,0,.2,0,.3,0,0,0,.2.1.2h-.6s0-.1,0-.2c0,0,0-.2,0-.3,0,0,0-.2,0-.3,0-.1,0-.2,0-.3,0-.1,0-.2,0-.3,0,0,0-.2-.1-.2,0,0-.1-.1-.2-.2s-.2,0-.3,0h-1.4v1.8h-.6v-4.3h2ZM24.7,79.4c.1,0,.2,0,.3-.1s.2-.1.2-.2c0,0,0-.2,0-.4s0-.4-.2-.5c-.1-.1-.3-.2-.6-.2h-1.4v1.5h1.2c.1,0,.3,0,.4,0Z"/>
    <path fill="#ffbdcb" d="M33,77.4v3.8h2.3v.5h-2.8v-4.3h.6Z"/>
    <path fill="#ffbdcb" d="M43.3,77.4l1.7,4.3h-.6l-.5-1.3h-1.8l-.5,1.3h-.6l1.7-4.3h.6ZM43.7,79.9l-.7-2h0l-.7,2h1.5Z"/>
    <path fill="#ffbdcb" d="M53.2,78c-.2-.1-.4-.2-.7-.2s-.2,0-.4,0c-.1,0-.2,0-.3.1s-.2.1-.2.2c0,0,0,.2,0,.4s0,.2.1.3.2.1.3.2c.1,0,.3,0,.4.1s.3,0,.5.1.3,0,.5.1.3.1.4.2c.1,0,.2.2.3.3,0,.1.1.3.1.5s0,.4-.2.6c-.1.2-.2.3-.4.4s-.3.2-.5.2-.4,0-.6,0-.5,0-.7,0c-.2,0-.4-.2-.6-.3s-.3-.3-.4-.5c0-.2-.1-.4-.1-.7h.5c0,.2,0,.3.1.5,0,.1.2.2.3.3.1,0,.2.1.4.2s.3,0,.5,0,.3,0,.4,0c.1,0,.2,0,.4-.1.1,0,.2-.1.3-.2,0-.1,0-.2,0-.4s0-.3-.1-.4c0,0-.2-.2-.3-.2-.1,0-.3-.1-.4-.1-.2,0-.3,0-.5-.1s-.3,0-.5-.1-.3-.1-.4-.2c-.1,0-.2-.2-.3-.3s-.1-.3-.1-.5,0-.4.1-.6c0-.2.2-.3.4-.4.1-.1.3-.2.5-.2.2,0,.4,0,.6,0s.4,0,.6,0c.2,0,.4.1.5.2.1.1.3.3.3.4,0,.2.1.4.1.6h-.5c0-.3-.1-.5-.3-.7Z"/>
    <path fill="#ffbdcb" d="M5.5,86.7c.4,0,.8.1,1,.3.2.2.3.5.3.9s-.1.7-.3.9-.5.3-1,.3h-1.3v1.8h-.6v-4.3h1.9ZM5.3,88.8c.3,0,.6,0,.7-.2.1-.1.2-.3.2-.6s0-.5-.2-.6c-.2-.1-.4-.2-.7-.2h-1.1v1.6h1.1Z"/>
    <path fill="#ffbdcb" d="M16.1,86.7v.5h-2.4v1.4h2.2v.5h-2.2v1.5h2.4v.5h-3v-4.3h3Z"/>
    <path fill="#ffbdcb" d="M24.6,86.7c.4,0,.7.1,1,.3.2.2.3.5.3.8s0,.5-.2.7c-.1.2-.3.3-.6.4h0c.1,0,.2,0,.3.1s.1.1.2.2c0,0,0,.2.1.3,0,0,0,.2,0,.3,0,.1,0,.2,0,.3,0,.1,0,.2,0,.3,0,.1,0,.2,0,.3,0,0,0,.2.1.2h-.6s0-.1,0-.2c0,0,0-.2,0-.3,0,0,0-.2,0-.3,0-.1,0-.2,0-.3,0-.1,0-.2,0-.3,0,0,0-.2-.1-.2,0,0-.1-.1-.2-.2s-.2,0-.3,0h-1.4v1.8h-.6v-4.3h2ZM24.7,88.7c.1,0,.2,0,.3-.1s.2-.1.2-.2c0,0,0-.2,0-.4s0-.4-.2-.5c-.1-.1-.3-.2-.6-.2h-1.4v1.5h1.2c.1,0,.3,0,.4,0Z"/>
    <path fill="#ffbdcb" d="M33,86.7v3.8h2.3v.5h-2.8v-4.3h.6Z"/>
    <path fill="#ffbdcb" d="M43.3,86.7l1.7,4.3h-.6l-.5-1.3h-1.8l-.5,1.3h-.6l1.7-4.3h.6ZM43.7,89.3l-.7-2h0l-.7,2h1.5Z"/>
    <path fill="#ffbdcb" d="M53.2,87.3c-.2-.1-.4-.2-.7-.2s-.2,0-.4,0c-.1,0-.2,0-.3.1s-.2.1-.2.2c0,0,0,.2,0,.4s0,.2.1.3.2.1.3.2c.1,0,.3,0,.4.1s.3,0,.5.1.3,0,.5.1.3.1.4.2c.1,0,.2.2.3.3,0,.1.1.3.1.5s0,.4-.2.6c-.1.2-.2.3-.4.4s-.3.2-.5.2-.4,0-.6,0-.5,0-.7,0c-.2,0-.4-.2-.6-.3s-.3-.3-.4-.5c0-.2-.1-.4-.1-.7h.5c0,.2,0,.3.1.5,0,.1.2.2.3.3.1,0,.2.1.4.2s.3,0,.5,0,.3,0,.4,0c.1,0,.2,0,.4-.1.1,0,.2-.1.3-.2,0-.1,0-.2,0-.4s0-.3-.1-.4c0,0-.2-.2-.3-.2-.1,0-.3-.1-.4-.1-.2,0-.3,0-.5-.1s-.3,0-.5-.1-.3-.1-.4-.2c-.1,0-.2-.2-.3-.3s-.1-.3-.1-.5,0-.4.1-.6c0-.2.2-.3.4-.4.1-.1.3-.2.5-.2.2,0,.4,0,.6,0s.4,0,.6,0c.2,0,.4.1.5.2.1.1.3.3.3.4,0,.2.1.4.1.6h-.5c0-.3-.1-.5-.3-.7Z"/>
    <path fill="#ffbdcb" d="M5.5,96.1c.4,0,.8.1,1,.3.2.2.3.5.3.9s-.1.7-.3.9-.5.3-1,.3h-1.3v1.8h-.6v-4.3h1.9ZM5.3,98.1c.3,0,.6,0,.7-.2.1-.1.2-.3.2-.6s0-.5-.2-.6c-.2-.1-.4-.2-.7-.2h-1.1v1.6h1.1Z"/>
    <path fill="#ffbdcb" d="M16.1,96.1v.5h-2.4v1.4h2.2v.5h-2.2v1.5h2.4v.5h-3v-4.3h3Z"/>
    <path fill="#ffbdcb" d="M24.6,96.1c.4,0,.7.1,1,.3.2.2.3.5.3.8s0,.5-.2.7c-.1.2-.3.3-.6.4h0c.1,0,.2,0,.3.1s.1.1.2.2c0,0,0,.2.1.3,0,0,0,.2,0,.3,0,.1,0,.2,0,.3,0,.1,0,.2,0,.3,0,.1,0,.2,0,.3,0,0,0,.2.1.2h-.6s0-.1,0-.2c0,0,0-.2,0-.3,0,0,0-.2,0-.3,0-.1,0-.2,0-.3,0-.1,0-.2,0-.3,0,0,0-.2-.1-.2,0,0-.1-.1-.2-.2s-.2,0-.3,0h-1.4v1.8h-.6v-4.3h2ZM24.7,98c.1,0,.2,0,.3-.1s.2-.1.2-.2c0,0,0-.2,0-.4s0-.4-.2-.5c-.1-.1-.3-.2-.6-.2h-1.4v1.5h1.2c.1,0,.3,0,.4,0Z"/>
    <path fill="#ffbdcb" d="M33,96.1v3.8h2.3v.5h-2.8v-4.3h.6Z"/>
    <path fill="#ffbdcb" d="M43.3,96.1l1.7,4.3h-.6l-.5-1.3h-1.8l-.5,1.3h-.6l1.7-4.3h.6ZM43.7,98.6l-.7-2h0l-.7,2h1.5Z"/>
    <path fill="#ffbdcb" d="M53.2,96.7c-.2-.1-.4-.2-.7-.2s-.2,0-.4,0c-.1,0-.2,0-.3.1s-.2.1-.2.2c0,0,0,.2,0,.4s0,.2.1.3.2.1.3.2c.1,0,.3,0,.4.1s.3,0,.5.1.3,0,.5.1.3.1.4.2c.1,0,.2.2.3.3,0,.1.1.3.1.5s0,.4-.2.6c-.1.2-.2.3-.4.4s-.3.2-.5.2-.4,0-.6,0-.5,0-.7,0c-.2,0-.4-.2-.6-.3s-.3-.3-.4-.5c0-.2-.1-.4-.1-.7h.5c0,.2,0,.3.1.5,0,.1.2.2.3.3.1,0,.2.1.4.2s.3,0,.5,0,.3,0,.4,0c.1,0,.2,0,.4-.1.1,0,.2-.1.3-.2,0-.1,0-.2,0-.4s0-.3-.1-.4c0,0-.2-.2-.3-.2-.1,0-.3-.1-.4-.1-.2,0-.3,0-.5-.1s-.3,0-.5-.1-.3-.1-.4-.2c-.1,0-.2-.2-.3-.3s-.1-.3-.1-.5,0-.4.1-.6c0-.2.2-.3.4-.4.1-.1.3-.2.5-.2.2,0,.4,0,.6,0s.4,0,.6,0c.2,0,.4.1.5.2.1.1.3.3.3.4,0,.2.1.4.1.6h-.5c0-.3-.1-.5-.3-.7Z"/>
    <path fill="#ffbdcb" d="M5.5,105.4c.4,0,.8.1,1,.3.2.2.3.5.3.9s-.1.7-.3.9-.5.3-1,.3h-1.3v1.8h-.6v-4.3h1.9ZM5.3,107.4c.3,0,.6,0,.7-.2.1-.1.2-.3.2-.6s0-.5-.2-.6c-.2-.1-.4-.2-.7-.2h-1.1v1.6h1.1Z"/>
    <path fill="#ffbdcb" d="M16.1,105.4v.5h-2.4v1.4h2.2v.5h-2.2v1.5h2.4v.5h-3v-4.3h3Z"/>
    <path fill="#ffbdcb" d="M24.6,105.4c.4,0,.7.1,1,.3.2.2.3.5.3.8s0,.5-.2.7c-.1.2-.3.3-.6.4h0c.1,0,.2,0,.3.1s.1.1.2.2c0,0,0,.2.1.3,0,0,0,.2,0,.3,0,.1,0,.2,0,.3,0,.1,0,.2,0,.3,0,.1,0,.2,0,.3,0,0,0,.2.1.2h-.6s0-.1,0-.2c0,0,0-.2,0-.3,0,0,0-.2,0-.3,0-.1,0-.2,0-.3,0-.1,0-.2,0-.3,0,0,0-.2-.1-.2,0,0-.1-.1-.2-.2s-.2,0-.3,0h-1.4v1.8h-.6v-4.3h2ZM24.7,107.3c.1,0,.2,0,.3-.1s.2-.1.2-.2c0,0,0-.2,0-.4s0-.4-.2-.5c-.1-.1-.3-.2-.6-.2h-1.4v1.5h1.2c.1,0,.3,0,.4,0Z"/>
    <path fill="#ffbdcb" d="M33,105.4v3.8h2.3v.5h-2.8v-4.3h.6Z"/>
    <path fill="#ffbdcb" d="M43.3,105.4l1.7,4.3h-.6l-.5-1.3h-1.8l-.5,1.3h-.6l1.7-4.3h.6ZM43.7,107.9l-.7-2h0l-.7,2h1.5Z"/>
    <path fill="#ffbdcb" d="M53.2,106c-.2-.1-.4-.2-.7-.2s-.2,0-.4,0c-.1,0-.2,0-.3.1s-.2.1-.2.2c0,0,0,.2,0,.4s0,.2.1.3.2.1.3.2c.1,0,.3,0,.4.1s.3,0,.5.1.3,0,.5.1.3.1.4.2c.1,0,.2.2.3.3,0,.1.1.3.1.5s0,.4-.2.6c-.1.2-.2.3-.4.4s-.3.2-.5.2-.4,0-.6,0-.5,0-.7,0c-.2,0-.4-.2-.6-.3s-.3-.3-.4-.5c0-.2-.1-.4-.1-.7h.5c0,.2,0,.3.1.5,0,.1.2.2.3.3.1,0,.2.1.4.2s.3,0,.5,0,.3,0,.4,0c.1,0,.2,0,.4-.1.1,0,.2-.1.3-.2,0-.1,0-.2,0-.4s0-.3-.1-.4c0,0-.2-.2-.3-.2-.1,0-.3-.1-.4-.1-.2,0-.3,0-.5-.1s-.3,0-.5-.1-.3-.1-.4-.2c-.1,0-.2-.2-.3-.3s-.1-.3-.1-.5,0-.4.1-.6c0-.2.2-.3.4-.4.1-.1.3-.2.5-.2.2,0,.4,0,.6,0s.4,0,.6,0c.2,0,.4.1.5.2.1.1.3.3.3.4,0,.2.1.4.1.6h-.5c0-.3-.1-.5-.3-.7Z"/>
    <path fill="#ffbdcb" d="M5.5,114.7c.4,0,.8.1,1,.3.2.2.3.5.3.9s-.1.7-.3.9-.5.3-1,.3h-1.3v1.8h-.6v-4.3h1.9ZM5.3,116.8c.3,0,.6,0,.7-.2.1-.1.2-.3.2-.6s0-.5-.2-.6c-.2-.1-.4-.2-.7-.2h-1.1v1.6h1.1Z"/>
    <path fill="#ffbdcb" d="M16.1,114.7v.5h-2.4v1.4h2.2v.5h-2.2v1.5h2.4v.5h-3v-4.3h3Z"/>
    <path fill="#ffbdcb" d="M24.6,114.7c.4,0,.7.1,1,.3.2.2.3.5.3.8s0,.5-.2.7c-.1.2-.3.3-.6.4h0c.1,0,.2,0,.3.1s.1.1.2.2c0,0,0,.2.1.3,0,0,0,.2,0,.3,0,.1,0,.2,0,.3,0,.1,0,.2,0,.3,0,.1,0,.2,0,.3,0,0,0,.2.1.2h-.6s0-.1,0-.2c0,0,0-.2,0-.3,0,0,0-.2,0-.3,0-.1,0-.2,0-.3,0-.1,0-.2,0-.3,0,0,0-.2-.1-.2,0,0-.1-.1-.2-.2s-.2,0-.3,0h-1.4v1.8h-.6v-4.3h2ZM24.7,116.7c.1,0,.2,0,.3-.1s.2-.1.2-.2c0,0,0-.2,0-.4s0-.4-.2-.5c-.1-.1-.3-.2-.6-.2h-1.4v1.5h1.2c.1,0,.3,0,.4,0Z"/>
    <path fill="#ffbdcb" d="M33,114.7v3.8h2.3v.5h-2.8v-4.3h.6Z"/>
    <path fill="#ffbdcb" d="M43.3,114.7l1.7,4.3h-.6l-.5-1.3h-1.8l-.5,1.3h-.6l1.7-4.3h.6ZM43.7,117.2l-.7-2h0l-.7,2h1.5Z"/>
    <path fill="#ffbdcb" d="M53.2,115.3c-.2-.1-.4-.2-.7-.2s-.2,0-.4,0c-.1,0-.2,0-.3.1s-.2.1-.2.2c0,0,0,.2,0,.4s0,.2.1.3.2.1.3.2c.1,0,.3,0,.4.1s.3,0,.5.1.3,0,.5.1.3.1.4.2c.1,0,.2.2.3.3,0,.1.1.3.1.5s0,.4-.2.6c-.1.2-.2.3-.4.4s-.3.2-.5.2-.4,0-.6,0-.5,0-.7,0c-.2,0-.4-.2-.6-.3s-.3-.3-.4-.5c0-.2-.1-.4-.1-.7h.5c0,.2,0,.3.1.5,0,.1.2.2.3.3.1,0,.2.1.4.2s.3,0,.5,0,.3,0,.4,0c.1,0,.2,0,.4-.1.1,0,.2-.1.3-.2,0-.1,0-.2,0-.4s0-.3-.1-.4c0,0-.2-.2-.3-.2-.1,0-.3-.1-.4-.1-.2,0-.3,0-.5-.1s-.3,0-.5-.1-.3-.1-.4-.2c-.1,0-.2-.2-.3-.3s-.1-.3-.1-.5,0-.4.1-.6c0-.2.2-.3.4-.4.1-.1.3-.2.5-.2.2,0,.4,0,.6,0s.4,0,.6,0c.2,0,.4.1.5.2.1.1.3.3.3.4,0,.2.1.4.1.6h-.5c0-.3-.1-.5-.3-.7Z"/>
    <path fill="#ffbdcb" d="M5.5,124c.4,0,.8.1,1,.3.2.2.3.5.3.9s-.1.7-.3.9-.5.3-1,.3h-1.3v1.8h-.6v-4.3h1.9ZM5.3,126.1c.3,0,.6,0,.7-.2.1-.1.2-.3.2-.6s0-.5-.2-.6c-.2-.1-.4-.2-.7-.2h-1.1v1.6h1.1Z"/>
    <path fill="#ffbdcb" d="M16.1,124v.5h-2.4v1.4h2.2v.5h-2.2v1.5h2.4v.5h-3v-4.3h3Z"/>
    <path fill="#ffbdcb" d="M24.6,124c.4,0,.7.1,1,.3.2.2.3.5.3.8s0,.5-.2.7c-.1.2-.3.3-.6.4h0c.1,0,.2,0,.3.1s.1.1.2.2c0,0,0,.2.1.3,0,0,0,.2,0,.3,0,.1,0,.2,0,.3,0,.1,0,.2,0,.3,0,.1,0,.2,0,.3,0,0,0,.2.1.2h-.6s0-.1,0-.2c0,0,0-.2,0-.3,0,0,0-.2,0-.3,0-.1,0-.2,0-.3,0-.1,0-.2,0-.3,0,0,0-.2-.1-.2,0,0-.1-.1-.2-.2s-.2,0-.3,0h-1.4v1.8h-.6v-4.3h2ZM24.7,126c.1,0,.2,0,.3-.1s.2-.1.2-.2c0,0,0-.2,0-.4s0-.4-.2-.5c-.1-.1-.3-.2-.6-.2h-1.4v1.5h1.2c.1,0,.3,0,.4,0Z"/>
    <path fill="#ffbdcb" d="M33,124v3.8h2.3v.5h-2.8v-4.3h.6Z"/>
    <path fill="#ffbdcb" d="M43.3,124l1.7,4.3h-.6l-.5-1.3h-1.8l-.5,1.3h-.6l1.7-4.3h.6ZM43.7,126.6l-.7-2h0l-.7,2h1.5Z"/>
    <path fill="#ffbdcb" d="M53.2,124.6c-.2-.1-.4-.2-.7-.2s-.2,0-.4,0c-.1,0-.2,0-.3.1s-.2.1-.2.2c0,0,0,.2,0,.4s0,.2.1.3.2.1.3.2c.1,0,.3,0,.4.1s.3,0,.5.1.3,0,.5.1.3.1.4.2c.1,0,.2.2.3.3,0,.1.1.3.1.5s0,.4-.2.6c-.1.2-.2.3-.4.4s-.3.2-.5.2-.4,0-.6,0-.5,0-.7,0c-.2,0-.4-.2-.6-.3s-.3-.3-.4-.5c0-.2-.1-.4-.1-.7h.5c0,.2,0,.3.1.5,0,.1.2.2.3.3.1,0,.2.1.4.2s.3,0,.5,0,.3,0,.4,0c.1,0,.2,0,.4-.1.1,0,.2-.1.3-.2,0-.1,0-.2,0-.4s0-.3-.1-.4c0,0-.2-.2-.3-.2-.1,0-.3-.1-.4-.1-.2,0-.3,0-.5-.1s-.3,0-.5-.1-.3-.1-.4-.2c-.1,0-.2-.2-.3-.3s-.1-.3-.1-.5,0-.4.1-.6c0-.2.2-.3.4-.4.1-.1.3-.2.5-.2.2,0,.4,0,.6,0s.4,0,.6,0c.2,0,.4.1.5.2.1.1.3.3.3.4,0,.2.1.4.1.6h-.5c0-.3-.1-.5-.3-.7Z"/>
    <path fill="#ffbdcb" d="M5.5,133.4c.4,0,.8.1,1,.3.2.2.3.5.3.9s-.1.7-.3.9-.5.3-1,.3h-1.3v1.8h-.6v-4.3h1.9ZM5.3,135.4c.3,0,.6,0,.7-.2.1-.1.2-.3.2-.6s0-.5-.2-.6c-.2-.1-.4-.2-.7-.2h-1.1v1.6h1.1Z"/>
    <path fill="#ffbdcb" d="M16.1,133.4v.5h-2.4v1.4h2.2v.5h-2.2v1.5h2.4v.5h-3v-4.3h3Z"/>
    <path fill="#ffbdcb" d="M24.6,133.4c.4,0,.7.1,1,.3.2.2.3.5.3.8s0,.5-.2.7c-.1.2-.3.3-.6.4h0c.1,0,.2,0,.3.1s.1.1.2.2c0,0,0,.2.1.3,0,0,0,.2,0,.3,0,.1,0,.2,0,.3,0,.1,0,.2,0,.3,0,.1,0,.2,0,.3,0,0,0,.2.1.2h-.6s0-.1,0-.2c0,0,0-.2,0-.3,0,0,0-.2,0-.3,0-.1,0-.2,0-.3,0-.1,0-.2,0-.3,0,0,0-.2-.1-.2,0,0-.1-.1-.2-.2s-.2,0-.3,0h-1.4v1.8h-.6v-4.3h2ZM24.7,135.3c.1,0,.2,0,.3-.1s.2-.1.2-.2c0,0,0-.2,0-.4s0-.4-.2-.5c-.1-.1-.3-.2-.6-.2h-1.4v1.5h1.2c.1,0,.3,0,.4,0Z"/>
    <path fill="#ffbdcb" d="M33,133.4v3.8h2.3v.5h-2.8v-4.3h.6Z"/>
    <path fill="#ffbdcb" d="M43.3,133.4l1.7,4.3h-.6l-.5-1.3h-1.8l-.5,1.3h-.6l1.7-4.3h.6ZM43.7,135.9l-.7-2h0l-.7,2h1.5Z"/>
    <path fill="#ffbdcb" d="M53.2,133.9c-.2-.1-.4-.2-.7-.2s-.2,0-.4,0c-.1,0-.2,0-.3.1s-.2.1-.2.2c0,0,0,.2,0,.4s0,.2.1.3.2.1.3.2c.1,0,.3,0,.4.1s.3,0,.5.1.3,0,.5.1.3.1.4.2c.1,0,.2.2.3.3,0,.1.1.3.1.5s0,.4-.2.6c-.1.2-.2.3-.4.4s-.3.2-.5.2-.4,0-.6,0-.5,0-.7,0c-.2,0-.4-.2-.6-.3s-.3-.3-.4-.5c0-.2-.1-.4-.1-.7h.5c0,.2,0,.3.1.5,0,.1.2.2.3.3.1,0,.2.1.4.2s.3,0,.5,0,.3,0,.4,0c.1,0,.2,0,.4-.1.1,0,.2-.1.3-.2,0-.1,0-.2,0-.4s0-.3-.1-.4c0,0-.2-.2-.3-.2-.1,0-.3-.1-.4-.1-.2,0-.3,0-.5-.1s-.3,0-.5-.1-.3-.1-.4-.2c-.1,0-.2-.2-.3-.3s-.1-.3-.1-.5,0-.4.1-.6c0-.2.2-.3.4-.4.1-.1.3-.2.5-.2.2,0,.4,0,.6,0s.4,0,.6,0c.2,0,.4.1.5.2.1.1.3.3.3.4,0,.2.1.4.1.6h-.5c0-.3-.1-.5-.3-.7Z"/>
    <path fill="#ffbdcb" d="M5.5,142.7c.4,0,.8.1,1,.3.2.2.3.5.3.9s-.1.7-.3.9-.5.3-1,.3h-1.3v1.8h-.6v-4.3h1.9ZM5.3,144.7c.3,0,.6,0,.7-.2.1-.1.2-.3.2-.6s0-.5-.2-.6c-.2-.1-.4-.2-.7-.2h-1.1v1.6h1.1Z"/>
    <path fill="#ffbdcb" d="M16.1,142.7v.5h-2.4v1.4h2.2v.5h-2.2v1.5h2.4v.5h-3v-4.3h3Z"/>
    <path fill="#ffbdcb" d="M24.6,142.7c.4,0,.7.1,1,.3.2.2.3.5.3.8s0,.5-.2.7c-.1.2-.3.3-.6.4h0c.1,0,.2,0,.3.1s.1.1.2.2c0,0,0,.2.1.3,0,0,0,.2,0,.3,0,.1,0,.2,0,.3,0,.1,0,.2,0,.3,0,.1,0,.2,0,.3,0,0,0,.2.1.2h-.6s0-.1,0-.2c0,0,0-.2,0-.3,0,0,0-.2,0-.3,0-.1,0-.2,0-.3,0-.1,0-.2,0-.3,0,0,0-.2-.1-.2,0,0-.1-.1-.2-.2s-.2,0-.3,0h-1.4v1.8h-.6v-4.3h2ZM24.7,144.6c.1,0,.2,0,.3-.1s.2-.1.2-.2c0,0,0-.2,0-.4s0-.4-.2-.5c-.1-.1-.3-.2-.6-.2h-1.4v1.5h1.2c.1,0,.3,0,.4,0Z"/>
    <path fill="#ffbdcb" d="M33,142.7v3.8h2.3v.5h-2.8v-4.3h.6Z"/>
    <path fill="#ffbdcb" d="M43.3,142.7l1.7,4.3h-.6l-.5-1.3h-1.8l-.5,1.3h-.6l1.7-4.3h.6ZM43.7,145.2l-.7-2h0l-.7,2h1.5Z"/>
    <path fill="#ffbdcb" d="M53.2,143.3c-.2-.1-.4-.2-.7-.2s-.2,0-.4,0c-.1,0-.2,0-.3.1s-.2.1-.2.2c0,0,0,.2,0,.4s0,.2.1.3.2.1.3.2c.1,0,.3,0,.4.1s.3,0,.5.1.3,0,.5.1.3.1.4.2c.1,0,.2.2.3.3,0,.1.1.3.1.5s0,.4-.2.6c-.1.2-.2.3-.4.4s-.3.2-.5.2-.4,0-.6,0-.5,0-.7,0c-.2,0-.4-.2-.6-.3s-.3-.3-.4-.5c0-.2-.1-.4-.1-.7h.5c0,.2,0,.3.1.5,0,.1.2.2.3.3.1,0,.2.1.4.2s.3,0,.5,0,.3,0,.4,0c.1,0,.2,0,.4-.1.1,0,.2-.1.3-.2,0-.1,0-.2,0-.4s0-.3-.1-.4c0,0-.2-.2-.3-.2-.1,0-.3-.1-.4-.1-.2,0-.3,0-.5-.1s-.3,0-.5-.1-.3-.1-.4-.2c-.1,0-.2-.2-.3-.3s-.1-.3-.1-.5,0-.4.1-.6c0-.2.2-.3.4-.4.1-.1.3-.2.5-.2.2,0,.4,0,.6,0s.4,0,.6,0c.2,0,.4.1.5.2.1.1.3.3.3.4,0,.2.1.4.1.6h-.5c0-.3-.1-.5-.3-.7Z"/>
    <path fill="#ffbdcb" d="M5.5,152c.4,0,.8.1,1,.3.2.2.3.5.3.9s-.1.7-.3.9-.5.3-1,.3h-1.3v1.8h-.6v-4.3h1.9ZM5.3,154.1c.3,0,.6,0,.7-.2.1-.1.2-.3.2-.6s0-.5-.2-.6c-.2-.1-.4-.2-.7-.2h-1.1v1.6h1.1Z"/>
    <path fill="#ffbdcb" d="M16.1,152v.5h-2.4v1.4h2.2v.5h-2.2v1.5h2.4v.5h-3v-4.3h3Z"/>
    <path fill="#ffbdcb" d="M24.6,152c.4,0,.7.1,1,.3.2.2.3.5.3.8s0,.5-.2.7c-.1.2-.3.3-.6.4h0c.1,0,.2,0,.3.1s.1.1.2.2c0,0,0,.2.1.3,0,0,0,.2,0,.3,0,.1,0,.2,0,.3,0,.1,0,.2,0,.3,0,.1,0,.2,0,.3,0,0,0,.2.1.2h-.6s0-.1,0-.2c0,0,0-.2,0-.3,0,0,0-.2,0-.3,0-.1,0-.2,0-.3,0-.1,0-.2,0-.3,0,0,0-.2-.1-.2,0,0-.1-.1-.2-.2s-.2,0-.3,0h-1.4v1.8h-.6v-4.3h2ZM24.7,154c.1,0,.2,0,.3-.1s.2-.1.2-.2c0,0,0-.2,0-.4s0-.4-.2-.5c-.1-.1-.3-.2-.6-.2h-1.4v1.5h1.2c.1,0,.3,0,.4,0Z"/>
    <path fill="#ffbdcb" d="M33,152v3.8h2.3v.5h-2.8v-4.3h.6Z"/>
    <path fill="#ffbdcb" d="M43.3,152l1.7,4.3h-.6l-.5-1.3h-1.8l-.5,1.3h-.6l1.7-4.3h.6ZM43.7,154.5l-.7-2h0l-.7,2h1.5Z"/>
    <path fill="#ffbdcb" d="M53.2,152.6c-.2-.1-.4-.2-.7-.2s-.2,0-.4,0c-.1,0-.2,0-.3.1s-.2.1-.2.2c0,0,0,.2,0,.4s0,.2.1.3.2.1.3.2c.1,0,.3,0,.4.1s.3,0,.5.1.3,0,.5.1.3.1.4.2c.1,0,.2.2.3.3,0,.1.1.3.1.5s0,.4-.2.6c-.1.2-.2.3-.4.4s-.3.2-.5.2-.4,0-.6,0-.5,0-.7,0c-.2,0-.4-.2-.6-.3s-.3-.3-.4-.5c0-.2-.1-.4-.1-.7h.5c0,.2,0,.3.1.5,0,.1.2.2.3.3.1,0,.2.1.4.2s.3,0,.5,0,.3,0,.4,0c.1,0,.2,0,.4-.1.1,0,.2-.1.3-.2,0-.1,0-.2,0-.4s0-.3-.1-.4c0,0-.2-.2-.3-.2-.1,0-.3-.1-.4-.1-.2,0-.3,0-.5-.1s-.3,0-.5-.1-.3-.1-.4-.2c-.1,0-.2-.2-.3-.3s-.1-.3-.1-.5,0-.4.1-.6c0-.2.2-.3.4-.4.1-.1.3-.2.5-.2.2,0,.4,0,.6,0s.4,0,.6,0c.2,0,.4.1.5.2.1.1.3.3.3.4,0,.2.1.4.1.6h-.5c0-.3-.1-.5-.3-.7Z"/>
    <path fill="#ffbdcb" d="M5.5,161.3c.4,0,.8.1,1,.3.2.2.3.5.3.9s-.1.7-.3.9-.5.3-1,.3h-1.3v1.8h-.6v-4.3h1.9ZM5.3,163.4c.3,0,.6,0,.7-.2.1-.1.2-.3.2-.6s0-.5-.2-.6c-.2-.1-.4-.2-.7-.2h-1.1v1.6h1.1Z"/>
    <path fill="#ffbdcb" d="M16.1,161.3v.5h-2.4v1.4h2.2v.5h-2.2v1.5h2.4v.5h-3v-4.3h3Z"/>
    <path fill="#ffbdcb" d="M24.6,161.3c.4,0,.7.1,1,.3.2.2.3.5.3.8s0,.5-.2.7c-.1.2-.3.3-.6.4h0c.1,0,.2,0,.3.1s.1.1.2.2c0,0,0,.2.1.3,0,0,0,.2,0,.3,0,.1,0,.2,0,.3,0,.1,0,.2,0,.3,0,.1,0,.2,0,.3,0,0,0,.2.1.2h-.6s0-.1,0-.2c0,0,0-.2,0-.3,0,0,0-.2,0-.3,0-.1,0-.2,0-.3,0-.1,0-.2,0-.3,0,0,0-.2-.1-.2,0,0-.1-.1-.2-.2s-.2,0-.3,0h-1.4v1.8h-.6v-4.3h2ZM24.7,163.3c.1,0,.2,0,.3-.1s.2-.1.2-.2c0,0,0-.2,0-.4s0-.4-.2-.5c-.1-.1-.3-.2-.6-.2h-1.4v1.5h1.2c.1,0,.3,0,.4,0Z"/>
    <path fill="#ffbdcb" d="M33,161.3v3.8h2.3v.5h-2.8v-4.3h.6Z"/>
    <path fill="#ffbdcb" d="M43.3,161.3l1.7,4.3h-.6l-.5-1.3h-1.8l-.5,1.3h-.6l1.7-4.3h.6ZM43.7,163.8l-.7-2h0l-.7,2h1.5Z"/>
    <path fill="#ffbdcb" d="M53.2,161.9c-.2-.1-.4-.2-.7-.2s-.2,0-.4,0c-.1,0-.2,0-.3.1s-.2.1-.2.2c0,0,0,.2,0,.4s0,.2.1.3.2.1.3.2c.1,0,.3,0,.4.1s.3,0,.5.1.3,0,.5.1.3.1.4.2c.1,0,.2.2.3.3,0,.1.1.3.1.5s0,.4-.2.6c-.1.2-.2.3-.4.4s-.3.2-.5.2-.4,0-.6,0-.5,0-.7,0c-.2,0-.4-.2-.6-.3s-.3-.3-.4-.5c0-.2-.1-.4-.1-.7h.5c0,.2,0,.3.1.5,0,.1.2.2.3.3.1,0,.2.1.4.2s.3,0,.5,0,.3,0,.4,0c.1,0,.2,0,.4-.1.1,0,.2-.1.3-.2,0-.1,0-.2,0-.4s0-.3-.1-.4c0,0-.2-.2-.3-.2-.1,0-.3-.1-.4-.1-.2,0-.3,0-.5-.1s-.3,0-.5-.1-.3-.1-.4-.2c-.1,0-.2-.2-.3-.3s-.1-.3-.1-.5,0-.4.1-.6c0-.2.2-.3.4-.4.1-.1.3-.2.5-.2.2,0,.4,0,.6,0s.4,0,.6,0c.2,0,.4.1.5.2.1.1.3.3.3.4,0,.2.1.4.1.6h-.5c0-.3-.1-.5-.3-.7Z"/>
    <path fill="#ffbdcb" d="M5.5,170.7c.4,0,.8.1,1,.3.2.2.3.5.3.9s-.1.7-.3.9-.5.3-1,.3h-1.3v1.8h-.6v-4.3h1.9ZM5.3,172.7c.3,0,.6,0,.7-.2.1-.1.2-.3.2-.6s0-.5-.2-.6c-.2-.1-.4-.2-.7-.2h-1.1v1.6h1.1Z"/>
    <path fill="#ffbdcb" d="M16.1,170.7v.5h-2.4v1.4h2.2v.5h-2.2v1.5h2.4v.5h-3v-4.3h3Z"/>
    <path fill="#ffbdcb" d="M24.6,170.7c.4,0,.7.1,1,.3.2.2.3.5.3.8s0,.5-.2.7c-.1.2-.3.3-.6.4h0c.1,0,.2,0,.3.1s.1.1.2.2c0,0,0,.2.1.3,0,0,0,.2,0,.3,0,.1,0,.2,0,.3,0,.1,0,.2,0,.3,0,.1,0,.2,0,.3,0,0,0,.2.1.2h-.6s0-.1,0-.2c0,0,0-.2,0-.3,0,0,0-.2,0-.3,0-.1,0-.2,0-.3,0-.1,0-.2,0-.3,0,0,0-.2-.1-.2,0,0-.1-.1-.2-.2s-.2,0-.3,0h-1.4v1.8h-.6v-4.3h2ZM24.7,172.6c.1,0,.2,0,.3-.1s.2-.1.2-.2c0,0,0-.2,0-.4s0-.4-.2-.5c-.1-.1-.3-.2-.6-.2h-1.4v1.5h1.2c.1,0,.3,0,.4,0Z"/>
    <path fill="#ffbdcb" d="M33,170.7v3.8h2.3v.5h-2.8v-4.3h.6Z"/>
    <path fill="#ffbdcb" d="M43.3,170.7l1.7,4.3h-.6l-.5-1.3h-1.8l-.5,1.3h-.6l1.7-4.3h.6ZM43.7,173.2l-.7-2h0l-.7,2h1.5Z"/>
    <path fill="#ffbdcb" d="M53.2,171.2c-.2-.1-.4-.2-.7-.2s-.2,0-.4,0c-.1,0-.2,0-.3.1s-.2.1-.2.2c0,0,0,.2,0,.4s0,.2.1.3.2.1.3.2c.1,0,.3,0,.4.1s.3,0,.5.1.3,0,.5.1.3.1.4.2c.1,0,.2.2.3.3,0,.1.1.3.1.5s0,.4-.2.6c-.1.2-.2.3-.4.4s-.3.2-.5.2-.4,0-.6,0-.5,0-.7,0c-.2,0-.4-.2-.6-.3s-.3-.3-.4-.5c0-.2-.1-.4-.1-.7h.5c0,.2,0,.3.1.5,0,.1.2.2.3.3.1,0,.2.1.4.2s.3,0,.5,0,.3,0,.4,0c.1,0,.2,0,.4-.1.1,0,.2-.1.3-.2,0-.1,0-.2,0-.4s0-.3-.1-.4c0,0-.2-.2-.3-.2-.1,0-.3-.1-.4-.1-.2,0-.3,0-.5-.1s-.3,0-.5-.1-.3-.1-.4-.2c-.1,0-.2-.2-.3-.3s-.1-.3-.1-.5,0-.4.1-.6c0-.2.2-.3.4-.4.1-.1.3-.2.5-.2.2,0,.4,0,.6,0s.4,0,.6,0c.2,0,.4.1.5.2.1.1.3.3.3.4,0,.2.1.4.1.6h-.5c0-.3-.1-.5-.3-.7Z"/>
    <path fill="#ffbdcb" d="M5.5,180c.4,0,.8.1,1,.3.2.2.3.5.3.9s-.1.7-.3.9-.5.3-1,.3h-1.3v1.8h-.6v-4.3h1.9ZM5.3,182c.3,0,.6,0,.7-.2.1-.1.2-.3.2-.6s0-.5-.2-.6c-.2-.1-.4-.2-.7-.2h-1.1v1.6h1.1Z"/>
    <path fill="#ffbdcb" d="M16.1,180v.5h-2.4v1.4h2.2v.5h-2.2v1.5h2.4v.5h-3v-4.3h3Z"/>
    <path fill="#ffbdcb" d="M24.6,180c.4,0,.7.1,1,.3.2.2.3.5.3.8s0,.5-.2.7c-.1.2-.3.3-.6.4h0c.1,0,.2,0,.3.1,0,0,.1.1.2.2s0,.2.1.3c0,0,0,.2,0,.3,0,.1,0,.2,0,.3,0,.1,0,.2,0,.3,0,.1,0,.2,0,.3,0,0,0,.2.1.2h-.6s0-.1,0-.2c0,0,0-.2,0-.3,0,0,0-.2,0-.3,0-.1,0-.2,0-.3,0-.1,0-.2,0-.3,0,0,0-.2-.1-.2,0,0-.1-.1-.2-.2s-.2,0-.3,0h-1.4v1.8h-.6v-4.3h2ZM24.7,181.9c.1,0,.2,0,.3-.1s.2-.1.2-.2c0,0,0-.2,0-.4s0-.4-.2-.5c-.1-.1-.3-.2-.6-.2h-1.4v1.5h1.2c.1,0,.3,0,.4,0Z"/>
    <path fill="#ffbdcb" d="M33,180v3.8h2.3v.5h-2.8v-4.3h.6Z"/>
    <path fill="#ffbdcb" d="M43.3,180l1.7,4.3h-.6l-.5-1.3h-1.8l-.5,1.3h-.6l1.7-4.3h.6ZM43.7,182.5l-.7-2h0l-.7,2h1.5Z"/>
    <path fill="#ffbdcb" d="M53.2,180.6c-.2-.1-.4-.2-.7-.2s-.2,0-.4,0c-.1,0-.2,0-.3.1s-.2.1-.2.2c0,0,0,.2,0,.4s0,.2.1.3.2.1.3.2c.1,0,.3,0,.4.1s.3,0,.5.1.3,0,.5.1c.2,0,.3.1.4.2s.2.2.3.3c0,.1.1.3.1.5s0,.4-.2.6c-.1.2-.2.3-.4.4-.2.1-.3.2-.5.2s-.4,0-.6,0-.5,0-.7,0c-.2,0-.4-.2-.6-.3s-.3-.3-.4-.5c0-.2-.1-.4-.1-.7h.5c0,.2,0,.3.1.5,0,.1.2.2.3.3.1,0,.2.1.4.2.2,0,.3,0,.5,0s.3,0,.4,0c.1,0,.2,0,.4-.1.1,0,.2-.1.3-.2,0,0,0-.2,0-.4s0-.3-.1-.4c0,0-.2-.2-.3-.2-.1,0-.3-.1-.4-.1s-.3,0-.5-.1-.3,0-.5-.1-.3-.1-.4-.2c-.1,0-.2-.2-.3-.3s-.1-.3-.1-.5,0-.4.1-.6c0-.2.2-.3.4-.4.1-.1.3-.2.5-.2.2,0,.4,0,.6,0s.4,0,.6,0c.2,0,.4.1.5.2.1.1.3.3.3.4,0,.2.1.4.1.6h-.5c0-.3-.1-.5-.3-.7Z"/>
    <path fill="#ffbdcb" d="M5.5,189.3c.4,0,.8.1,1,.3.2.2.3.5.3.9s-.1.7-.3.9-.5.3-1,.3h-1.3v1.8h-.6v-4.3h1.9ZM5.3,191.4c.3,0,.6,0,.7-.2.1-.1.2-.3.2-.6s0-.5-.2-.6c-.2-.1-.4-.2-.7-.2h-1.1v1.6h1.1Z"/>
    <path fill="#ffbdcb" d="M16.1,189.3v.5h-2.4v1.4h2.2v.5h-2.2v1.5h2.4v.5h-3v-4.3h3Z"/>
    <path fill="#ffbdcb" d="M24.6,189.3c.4,0,.7.1,1,.3.2.2.3.5.3.8s0,.5-.2.7c-.1.2-.3.3-.6.4h0c.1,0,.2,0,.3.1,0,0,.1.1.2.2s0,.2.1.3c0,0,0,.2,0,.3,0,.1,0,.2,0,.3,0,.1,0,.2,0,.3,0,.1,0,.2,0,.3,0,0,0,.2.1.2h-.6s0-.1,0-.2c0,0,0-.2,0-.3,0,0,0-.2,0-.3,0-.1,0-.2,0-.3,0-.1,0-.2,0-.3,0,0,0-.2-.1-.2,0,0-.1-.1-.2-.2s-.2,0-.3,0h-1.4v1.8h-.6v-4.3h2ZM24.7,191.3c.1,0,.2,0,.3-.1s.2-.1.2-.2c0,0,0-.2,0-.4s0-.4-.2-.5c-.1-.1-.3-.2-.6-.2h-1.4v1.5h1.2c.1,0,.3,0,.4,0Z"/>
    <path fill="#ffbdcb" d="M33,189.3v3.8h2.3v.5h-2.8v-4.3h.6Z"/>
    <path fill="#ffbdcb" d="M43.3,189.3l1.7,4.3h-.6l-.5-1.3h-1.8l-.5,1.3h-.6l1.7-4.3h.6ZM43.7,191.8l-.7-2h0l-.7,2h1.5Z"/>
    <path fill="#ffbdcb" d="M53.2,189.9c-.2-.1-.4-.2-.7-.2s-.2,0-.4,0c-.1,0-.2,0-.3.1s-.2.1-.2.2c0,0,0,.2,0,.4s0,.2.1.3.2.1.3.2c.1,0,.3,0,.4.1.2,0,.3,0,.5.1s.3,0,.5.1c.2,0,.3.1.4.2s.2.2.3.3c0,.1.1.3.1.5s0,.4-.2.6c-.1.2-.2.3-.4.4-.2.1-.3.2-.5.2s-.4,0-.6,0-.5,0-.7,0c-.2,0-.4-.2-.6-.3s-.3-.3-.4-.5c0-.2-.1-.4-.1-.7h.5c0,.2,0,.3.1.5,0,.1.2.2.3.3.1,0,.2.1.4.2.2,0,.3,0,.5,0s.3,0,.4,0c.1,0,.2,0,.4-.1.1,0,.2-.1.3-.2,0,0,0-.2,0-.4s0-.3-.1-.4c0,0-.2-.2-.3-.2-.1,0-.3-.1-.4-.1s-.3,0-.5-.1-.3,0-.5-.1-.3-.1-.4-.2-.2-.2-.3-.3-.1-.3-.1-.5,0-.4.1-.6c0-.2.2-.3.4-.4.1-.1.3-.2.5-.2.2,0,.4,0,.6,0s.4,0,.6,0c.2,0,.4.1.5.2.1.1.3.3.3.4s.1.4.1.6h-.5c0-.3-.1-.5-.3-.7Z"/>
    <path fill="#ffbdcb" d="M5.5,198.6c.4,0,.8.1,1,.3.2.2.3.5.3.9s-.1.7-.3.9-.5.3-1,.3h-1.3v1.8h-.6v-4.3h1.9ZM5.3,200.7c.3,0,.6,0,.7-.2.1-.1.2-.3.2-.6s0-.5-.2-.6c-.2-.1-.4-.2-.7-.2h-1.1v1.6h1.1Z"/>
    <path fill="#ffbdcb" d="M16.1,198.6v.5h-2.4v1.4h2.2v.5h-2.2v1.5h2.4v.5h-3v-4.3h3Z"/>
    <path fill="#ffbdcb" d="M24.6,198.6c.4,0,.7.1,1,.3.2.2.3.5.3.8s0,.5-.2.7c-.1.2-.3.3-.6.4h0c.1,0,.2,0,.3.1,0,0,.1.1.2.2s0,.2.1.3c0,0,0,.2,0,.3,0,.1,0,.2,0,.3,0,.1,0,.2,0,.3,0,.1,0,.2,0,.3,0,0,0,.2.1.2h-.6s0-.1,0-.2c0,0,0-.2,0-.3,0,0,0-.2,0-.3,0-.1,0-.2,0-.3,0-.1,0-.2,0-.3,0,0,0-.2-.1-.2,0,0-.1-.1-.2-.2s-.2,0-.3,0h-1.4v1.8h-.6v-4.3h2ZM24.7,200.6c.1,0,.2,0,.3-.1s.2-.1.2-.2c0,0,0-.2,0-.4s0-.4-.2-.5c-.1-.1-.3-.2-.6-.2h-1.4v1.5h1.2c.1,0,.3,0,.4,0Z"/>
    <path fill="#ffbdcb" d="M33,198.6v3.8h2.3v.5h-2.8v-4.3h.6Z"/>
    <path fill="#ffbdcb" d="M43.3,198.6l1.7,4.3h-.6l-.5-1.3h-1.8l-.5,1.3h-.6l1.7-4.3h.6ZM43.7,201.1l-.7-2h0l-.7,2h1.5Z"/>
    <path fill="#ffbdcb" d="M53.2,199.2c-.2-.1-.4-.2-.7-.2s-.2,0-.4,0c-.1,0-.2,0-.3.1s-.2.1-.2.2c0,0,0,.2,0,.4s0,.2.1.3.2.1.3.2c.1,0,.3,0,.4.1.2,0,.3,0,.5.1s.3,0,.5.1c.2,0,.3.1.4.2s.2.2.3.3c0,.1.1.3.1.5s0,.4-.2.6c-.1.2-.2.3-.4.4-.2.1-.3.2-.5.2s-.4,0-.6,0-.5,0-.7,0c-.2,0-.4-.2-.6-.3s-.3-.3-.4-.5c0-.2-.1-.4-.1-.7h.5c0,.2,0,.3.1.5,0,.1.2.2.3.3.1,0,.2.1.4.2.2,0,.3,0,.5,0s.3,0,.4,0c.1,0,.2,0,.4-.1.1,0,.2-.1.3-.2,0,0,0-.2,0-.4s0-.3-.1-.4c0,0-.2-.2-.3-.2-.1,0-.3-.1-.4-.1s-.3,0-.5-.1-.3,0-.5-.1-.3-.1-.4-.2-.2-.2-.3-.3-.1-.3-.1-.5,0-.4.1-.6c0-.2.2-.3.4-.4.1-.1.3-.2.5-.2.2,0,.4,0,.6,0s.4,0,.6,0c.2,0,.4.1.5.2.1.1.3.3.3.4s.1.4.1.6h-.5c0-.3-.1-.5-.3-.7Z"/>
    <path fill="#ffbdcb" d="M5.5,208c.4,0,.8.1,1,.3.2.2.3.5.3.9s-.1.7-.3.9-.5.3-1,.3h-1.3v1.8h-.6v-4.3h1.9ZM5.3,210c.3,0,.6,0,.7-.2.1-.1.2-.3.2-.6s0-.5-.2-.6c-.2-.1-.4-.2-.7-.2h-1.1v1.6h1.1Z"/>
    <path fill="#ffbdcb" d="M16.1,208v.5h-2.4v1.4h2.2v.5h-2.2v1.5h2.4v.5h-3v-4.3h3Z"/>
    <path fill="#ffbdcb" d="M24.6,208c.4,0,.7.1,1,.3.2.2.3.5.3.8s0,.5-.2.7c-.1.2-.3.3-.6.4h0c.1,0,.2,0,.3.1,0,0,.1.1.2.2s0,.2.1.3c0,0,0,.2,0,.3,0,.1,0,.2,0,.3,0,.1,0,.2,0,.3,0,.1,0,.2,0,.3,0,0,0,.2.1.2h-.6s0-.1,0-.2c0,0,0-.2,0-.3,0,0,0-.2,0-.3,0-.1,0-.2,0-.3,0-.1,0-.2,0-.3,0,0,0-.2-.1-.2,0,0-.1-.1-.2-.2s-.2,0-.3,0h-1.4v1.8h-.6v-4.3h2ZM24.7,209.9c.1,0,.2,0,.3-.1s.2-.1.2-.2c0,0,0-.2,0-.4s0-.4-.2-.5c-.1-.1-.3-.2-.6-.2h-1.4v1.5h1.2c.1,0,.3,0,.4,0Z"/>
    <path fill="#ffbdcb" d="M33,208v3.8h2.3v.5h-2.8v-4.3h.6Z"/>
    <path fill="#ffbdcb" d="M43.3,208l1.7,4.3h-.6l-.5-1.3h-1.8l-.5,1.3h-.6l1.7-4.3h.6ZM43.7,210.5l-.7-2h0l-.7,2h1.5Z"/>
    <path fill="#ffbdcb" d="M53.2,208.5c-.2-.1-.4-.2-.7-.2s-.2,0-.4,0c-.1,0-.2,0-.3.1s-.2.1-.2.2c0,0,0,.2,0,.4s0,.2.1.3.2.1.3.2c.1,0,.3,0,.4.1.2,0,.3,0,.5.1s.3,0,.5.1c.2,0,.3.1.4.2s.2.2.3.3c0,.1.1.3.1.5s0,.4-.2.6c-.1.2-.2.3-.4.4-.2.1-.3.2-.5.2s-.4,0-.6,0-.5,0-.7,0c-.2,0-.4-.2-.6-.3s-.3-.3-.4-.5c0-.2-.1-.4-.1-.7h.5c0,.2,0,.3.1.5,0,.1.2.2.3.3.1,0,.2.1.4.2.2,0,.3,0,.5,0s.3,0,.4,0c.1,0,.2,0,.4-.1.1,0,.2-.1.3-.2,0,0,0-.2,0-.4s0-.3-.1-.4c0,0-.2-.2-.3-.2-.1,0-.3-.1-.4-.1s-.3,0-.5-.1-.3,0-.5-.1-.3-.1-.4-.2-.2-.2-.3-.3-.1-.3-.1-.5,0-.4.1-.6c0-.2.2-.3.4-.4.1-.1.3-.2.5-.2.2,0,.4,0,.6,0s.4,0,.6,0c.2,0,.4.1.5.2.1.1.3.3.3.4s.1.4.1.6h-.5c0-.3-.1-.5-.3-.7Z"/>
    <path fill="#ffbdcb" d="M5.5,217.3c.4,0,.8.1,1,.3.2.2.3.5.3.9s-.1.7-.3.9-.5.3-1,.3h-1.3v1.8h-.6v-4.3h1.9ZM5.3,219.3c.3,0,.6,0,.7-.2.1-.1.2-.3.2-.6s0-.5-.2-.6c-.2-.1-.4-.2-.7-.2h-1.1v1.6h1.1Z"/>
    <path fill="#ffbdcb" d="M16.1,217.3v.5h-2.4v1.4h2.2v.5h-2.2v1.5h2.4v.5h-3v-4.3h3Z"/>
    <path fill="#ffbdcb" d="M24.6,217.3c.4,0,.7.1,1,.3.2.2.3.5.3.8s0,.5-.2.7c-.1.2-.3.3-.6.4h0c.1,0,.2,0,.3.1,0,0,.1.1.2.2s0,.2.1.3c0,0,0,.2,0,.3,0,.1,0,.2,0,.3,0,.1,0,.2,0,.3,0,.1,0,.2,0,.3,0,0,0,.2.1.2h-.6s0-.1,0-.2c0,0,0-.2,0-.3,0,0,0-.2,0-.3,0-.1,0-.2,0-.3,0-.1,0-.2,0-.3,0,0,0-.2-.1-.2,0,0-.1-.1-.2-.2s-.2,0-.3,0h-1.4v1.8h-.6v-4.3h2ZM24.7,219.2c.1,0,.2,0,.3-.1s.2-.1.2-.2c0,0,0-.2,0-.4s0-.4-.2-.5c-.1-.1-.3-.2-.6-.2h-1.4v1.5h1.2c.1,0,.3,0,.4,0Z"/>
    <path fill="#ffbdcb" d="M33,217.3v3.8h2.3v.5h-2.8v-4.3h.6Z"/>
    <path fill="#ffbdcb" d="M43.3,217.3l1.7,4.3h-.6l-.5-1.3h-1.8l-.5,1.3h-.6l1.7-4.3h.6ZM43.7,219.8l-.7-2h0l-.7,2h1.5Z"/>
    <path fill="#ffbdcb" d="M53.2,217.9c-.2-.1-.4-.2-.7-.2s-.2,0-.4,0c-.1,0-.2,0-.3.1s-.2.1-.2.2c0,0,0,.2,0,.4s0,.2.1.3.2.1.3.2c.1,0,.3,0,.4.1.2,0,.3,0,.5.1s.3,0,.5.1c.2,0,.3.1.4.2s.2.2.3.3c0,.1.1.3.1.5s0,.4-.2.6c-.1.2-.2.3-.4.4-.2.1-.3.2-.5.2s-.4,0-.6,0-.5,0-.7,0c-.2,0-.4-.2-.6-.3s-.3-.3-.4-.5c0-.2-.1-.4-.1-.7h.5c0,.2,0,.3.1.5,0,.1.2.2.3.3.1,0,.2.1.4.2.2,0,.3,0,.5,0s.3,0,.4,0c.1,0,.2,0,.4-.1.1,0,.2-.1.3-.2,0,0,0-.2,0-.4s0-.3-.1-.4c0,0-.2-.2-.3-.2-.1,0-.3-.1-.4-.1s-.3,0-.5-.1-.3,0-.5-.1-.3-.1-.4-.2-.2-.2-.3-.3-.1-.3-.1-.5,0-.4.1-.6c0-.2.2-.3.4-.4.1-.1.3-.2.5-.2.2,0,.4,0,.6,0s.4,0,.6,0c.2,0,.4.1.5.2.1.1.3.3.3.4s.1.4.1.6h-.5c0-.3-.1-.5-.3-.7Z"/>
    <path fill="#ffbdcb" d="M5.5,226.6c.4,0,.8.1,1,.3.2.2.3.5.3.9s-.1.7-.3.9-.5.3-1,.3h-1.3v1.8h-.6v-4.3h1.9ZM5.3,228.7c.3,0,.6,0,.7-.2.1-.1.2-.3.2-.6s0-.5-.2-.6c-.2-.1-.4-.2-.7-.2h-1.1v1.6h1.1Z"/>
    <path fill="#ffbdcb" d="M16.1,226.6v.5h-2.4v1.4h2.2v.5h-2.2v1.5h2.4v.5h-3v-4.3h3Z"/>
    <path fill="#ffbdcb" d="M24.6,226.6c.4,0,.7.1,1,.3.2.2.3.5.3.8s0,.5-.2.7c-.1.2-.3.3-.6.4h0c.1,0,.2,0,.3.1,0,0,.1.1.2.2s0,.2.1.3c0,0,0,.2,0,.3,0,.1,0,.2,0,.3,0,.1,0,.2,0,.3,0,.1,0,.2,0,.3,0,0,0,.2.1.2h-.6s0-.1,0-.2c0,0,0-.2,0-.3,0,0,0-.2,0-.3,0-.1,0-.2,0-.3,0-.1,0-.2,0-.3,0,0,0-.2-.1-.2,0,0-.1-.1-.2-.2s-.2,0-.3,0h-1.4v1.8h-.6v-4.3h2ZM24.7,228.5c.1,0,.2,0,.3-.1s.2-.1.2-.2c0,0,0-.2,0-.4s0-.4-.2-.5c-.1-.1-.3-.2-.6-.2h-1.4v1.5h1.2c.1,0,.3,0,.4,0Z"/>
    <path fill="#ffbdcb" d="M33,226.6v3.8h2.3v.5h-2.8v-4.3h.6Z"/>
    <path fill="#ffbdcb" d="M43.3,226.6l1.7,4.3h-.6l-.5-1.3h-1.8l-.5,1.3h-.6l1.7-4.3h.6ZM43.7,229.1l-.7-2h0l-.7,2h1.5Z"/>
    <path fill="#ffbdcb" d="M53.2,227.2c-.2-.1-.4-.2-.7-.2s-.2,0-.4,0c-.1,0-.2,0-.3.1s-.2.1-.2.2c0,0,0,.2,0,.4s0,.2.1.3.2.1.3.2c.1,0,.3,0,.4.1.2,0,.3,0,.5.1s.3,0,.5.1c.2,0,.3.1.4.2s.2.2.3.3c0,.1.1.3.1.5s0,.4-.2.6c-.1.2-.2.3-.4.4-.2.1-.3.2-.5.2s-.4,0-.6,0-.5,0-.7,0c-.2,0-.4-.2-.6-.3s-.3-.3-.4-.5c0-.2-.1-.4-.1-.7h.5c0,.2,0,.3.1.5,0,.1.2.2.3.3.1,0,.2.1.4.2.2,0,.3,0,.5,0s.3,0,.4,0c.1,0,.2,0,.4-.1.1,0,.2-.1.3-.2,0,0,0-.2,0-.4s0-.3-.1-.4c0,0-.2-.2-.3-.2-.1,0-.3-.1-.4-.1s-.3,0-.5-.1-.3,0-.5-.1-.3-.1-.4-.2-.2-.2-.3-.3-.1-.3-.1-.5,0-.4.1-.6c0-.2.2-.3.4-.4.1-.1.3-.2.5-.2.2,0,.4,0,.6,0s.4,0,.6,0c.2,0,.4.1.5.2.1.1.3.3.3.4s.1.4.1.6h-.5c0-.3-.1-.5-.3-.7Z"/>
    <path fill="#ffbdcb" d="M5.5,235.9c.4,0,.8.1,1,.3.2.2.3.5.3.9s-.1.7-.3.9-.5.3-1,.3h-1.3v1.8h-.6v-4.3h1.9ZM5.3,238c.3,0,.6,0,.7-.2.1-.1.2-.3.2-.6s0-.5-.2-.6c-.2-.1-.4-.2-.7-.2h-1.1v1.6h1.1Z"/>
    <path fill="#ffbdcb" d="M16.1,235.9v.5h-2.4v1.4h2.2v.5h-2.2v1.5h2.4v.5h-3v-4.3h3Z"/>
    <path fill="#ffbdcb" d="M24.6,235.9c.4,0,.7.1,1,.3.2.2.3.5.3.8s0,.5-.2.7c-.1.2-.3.3-.6.4h0c.1,0,.2,0,.3.1,0,0,.1.1.2.2s0,.2.1.3c0,0,0,.2,0,.3,0,.1,0,.2,0,.3,0,.1,0,.2,0,.3,0,.1,0,.2,0,.3,0,0,0,.2.1.2h-.6s0-.1,0-.2c0,0,0-.2,0-.3,0,0,0-.2,0-.3,0-.1,0-.2,0-.3,0-.1,0-.2,0-.3,0,0,0-.2-.1-.2,0,0-.1-.1-.2-.2s-.2,0-.3,0h-1.4v1.8h-.6v-4.3h2ZM24.7,237.9c.1,0,.2,0,.3-.1s.2-.1.2-.2c0,0,0-.2,0-.4s0-.4-.2-.5c-.1-.1-.3-.2-.6-.2h-1.4v1.5h1.2c.1,0,.3,0,.4,0Z"/>
    <path fill="#ffbdcb" d="M33,235.9v3.8h2.3v.5h-2.8v-4.3h.6Z"/>
    <path fill="#ffbdcb" d="M43.3,235.9l1.7,4.3h-.6l-.5-1.3h-1.8l-.5,1.3h-.6l1.7-4.3h.6ZM43.7,238.4l-.7-2h0l-.7,2h1.5Z"/>
    <path fill="#ffbdcb" d="M53.2,236.5c-.2-.1-.4-.2-.7-.2s-.2,0-.4,0c-.1,0-.2,0-.3.1s-.2.1-.2.2c0,0,0,.2,0,.4s0,.2.1.3.2.1.3.2c.1,0,.3,0,.4.1.2,0,.3,0,.5.1s.3,0,.5.1c.2,0,.3.1.4.2s.2.2.3.3c0,.1.1.3.1.5s0,.4-.2.6c-.1.2-.2.3-.4.4-.2.1-.3.2-.5.2s-.4,0-.6,0-.5,0-.7,0c-.2,0-.4-.2-.6-.3s-.3-.3-.4-.5c0-.2-.1-.4-.1-.7h.5c0,.2,0,.3.1.5,0,.1.2.2.3.3.1,0,.2.1.4.2.2,0,.3,0,.5,0s.3,0,.4,0c.1,0,.2,0,.4-.1.1,0,.2-.1.3-.2,0,0,0-.2,0-.4s0-.3-.1-.4c0,0-.2-.2-.3-.2-.1,0-.3-.1-.4-.1s-.3,0-.5-.1-.3,0-.5-.1-.3-.1-.4-.2-.2-.2-.3-.3-.1-.3-.1-.5,0-.4.1-.6c0-.2.2-.3.4-.4.1-.1.3-.2.5-.2.2,0,.4,0,.6,0s.4,0,.6,0c.2,0,.4.1.5.2.1.1.3.3.3.4s.1.4.1.6h-.5c0-.3-.1-.5-.3-.7Z"/>
    <path fill="#ffbdcb" d="M5.5,245.2c.4,0,.8.1,1,.3.2.2.3.5.3.9s-.1.7-.3.9-.5.3-1,.3h-1.3v1.8h-.6v-4.3h1.9ZM5.3,247.3c.3,0,.6,0,.7-.2.1-.1.2-.3.2-.6s0-.5-.2-.6c-.2-.1-.4-.2-.7-.2h-1.1v1.6h1.1Z"/>
    <path fill="#ffbdcb" d="M16.1,245.2v.5h-2.4v1.4h2.2v.5h-2.2v1.5h2.4v.5h-3v-4.3h3Z"/>
    <path fill="#ffbdcb" d="M24.6,245.2c.4,0,.7.1,1,.3.2.2.3.5.3.8s0,.5-.2.7c-.1.2-.3.3-.6.4h0c.1,0,.2,0,.3.1,0,0,.1.1.2.2s0,.2.1.3c0,0,0,.2,0,.3,0,.1,0,.2,0,.3,0,.1,0,.2,0,.3,0,.1,0,.2,0,.3,0,0,0,.2.1.2h-.6s0-.1,0-.2c0,0,0-.2,0-.3,0,0,0-.2,0-.3,0-.1,0-.2,0-.3,0-.1,0-.2,0-.3,0,0,0-.2-.1-.2,0,0-.1-.1-.2-.2s-.2,0-.3,0h-1.4v1.8h-.6v-4.3h2ZM24.7,247.2c.1,0,.2,0,.3-.1s.2-.1.2-.2c0,0,0-.2,0-.4s0-.4-.2-.5c-.1-.1-.3-.2-.6-.2h-1.4v1.5h1.2c.1,0,.3,0,.4,0Z"/>
    <path fill="#ffbdcb" d="M33,245.2v3.8h2.3v.5h-2.8v-4.3h.6Z"/>
    <path fill="#ffbdcb" d="M43.3,245.2l1.7,4.3h-.6l-.5-1.3h-1.8l-.5,1.3h-.6l1.7-4.3h.6ZM43.7,247.8l-.7-2h0l-.7,2h1.5Z"/>
    <path fill="#ffbdcb" d="M53.2,245.8c-.2-.1-.4-.2-.7-.2s-.2,0-.4,0c-.1,0-.2,0-.3.1s-.2.1-.2.2c0,0,0,.2,0,.4s0,.2.1.3.2.1.3.2c.1,0,.3,0,.4.1.2,0,.3,0,.5.1s.3,0,.5.1c.2,0,.3.1.4.2s.2.2.3.3c0,.1.1.3.1.5s0,.4-.2.6c-.1.2-.2.3-.4.4-.2.1-.3.2-.5.2s-.4,0-.6,0-.5,0-.7,0c-.2,0-.4-.2-.6-.3s-.3-.3-.4-.5c0-.2-.1-.4-.1-.7h.5c0,.2,0,.3.1.5,0,.1.2.2.3.3.1,0,.2.1.4.2.2,0,.3,0,.5,0s.3,0,.4,0c.1,0,.2,0,.4-.1.1,0,.2-.1.3-.2,0,0,0-.2,0-.4s0-.3-.1-.4c0,0-.2-.2-.3-.2-.1,0-.3-.1-.4-.1s-.3,0-.5-.1-.3,0-.5-.1-.3-.1-.4-.2-.2-.2-.3-.3-.1-.3-.1-.5,0-.4.1-.6c0-.2.2-.3.4-.4.1-.1.3-.2.5-.2.2,0,.4,0,.6,0s.4,0,.6,0c.2,0,.4.1.5.2.1.1.3.3.3.4s.1.4.1.6h-.5c0-.3-.1-.5-.3-.7Z"/>
    <path fill="#ffbdcb" d="M5.5,254.6c.4,0,.8.1,1,.3.2.2.3.5.3.9s-.1.7-.3.9-.5.3-1,.3h-1.3v1.8h-.6v-4.3h1.9ZM5.3,256.6c.3,0,.6,0,.7-.2.1-.1.2-.3.2-.6s0-.5-.2-.6c-.2-.1-.4-.2-.7-.2h-1.1v1.6h1.1Z"/>
    <path fill="#ffbdcb" d="M16.1,254.6v.5h-2.4v1.4h2.2v.5h-2.2v1.5h2.4v.5h-3v-4.3h3Z"/>
    <path fill="#ffbdcb" d="M24.6,254.6c.4,0,.7.1,1,.3.2.2.3.5.3.8s0,.5-.2.7c-.1.2-.3.3-.6.4h0c.1,0,.2,0,.3.1,0,0,.1.1.2.2s0,.2.1.3c0,0,0,.2,0,.3,0,.1,0,.2,0,.3,0,.1,0,.2,0,.3,0,.1,0,.2,0,.3,0,0,0,.2.1.2h-.6s0-.1,0-.2c0,0,0-.2,0-.3,0,0,0-.2,0-.3,0-.1,0-.2,0-.3,0-.1,0-.2,0-.3,0,0,0-.2-.1-.2,0,0-.1-.1-.2-.2s-.2,0-.3,0h-1.4v1.8h-.6v-4.3h2ZM24.7,256.5c.1,0,.2,0,.3-.1s.2-.1.2-.2c0,0,0-.2,0-.4s0-.4-.2-.5c-.1-.1-.3-.2-.6-.2h-1.4v1.5h1.2c.1,0,.3,0,.4,0Z"/>
    <path fill="#ffbdcb" d="M33,254.6v3.8h2.3v.5h-2.8v-4.3h.6Z"/>
    <path fill="#ffbdcb" d="M43.3,254.6l1.7,4.3h-.6l-.5-1.3h-1.8l-.5,1.3h-.6l1.7-4.3h.6ZM43.7,257.1l-.7-2h0l-.7,2h1.5Z"/>
    <path fill="#ffbdcb" d="M53.2,255.2c-.2-.1-.4-.2-.7-.2s-.2,0-.4,0c-.1,0-.2,0-.3.1s-.2.1-.2.2c0,0,0,.2,0,.4s0,.2.1.3.2.1.3.2c.1,0,.3,0,.4.1.2,0,.3,0,.5.1s.3,0,.5.1c.2,0,.3.1.4.2s.2.2.3.3c0,.1.1.3.1.5s0,.4-.2.6c-.1.2-.2.3-.4.4-.2.1-.3.2-.5.2s-.4,0-.6,0-.5,0-.7,0c-.2,0-.4-.2-.6-.3s-.3-.3-.4-.5c0-.2-.1-.4-.1-.7h.5c0,.2,0,.3.1.5,0,.1.2.2.3.3.1,0,.2.1.4.2.2,0,.3,0,.5,0s.3,0,.4,0c.1,0,.2,0,.4-.1.1,0,.2-.1.3-.2,0,0,0-.2,0-.4s0-.3-.1-.4c0,0-.2-.2-.3-.2-.1,0-.3-.1-.4-.1s-.3,0-.5-.1-.3,0-.5-.1-.3-.1-.4-.2-.2-.2-.3-.3-.1-.3-.1-.5,0-.4.1-.6c0-.2.2-.3.4-.4.1-.1.3-.2.5-.2.2,0,.4,0,.6,0s.4,0,.6,0c.2,0,.4.1.5.2.1.1.3.3.3.4s.1.4.1.6h-.5c0-.3-.1-.5-.3-.7Z"/>
    <path fill="#ffbdcb" d="M5.5,263.9c.4,0,.8.1,1,.3.2.2.3.5.3.9s-.1.7-.3.9-.5.3-1,.3h-1.3v1.8h-.6v-4.3h1.9ZM5.3,265.9c.3,0,.6,0,.7-.2.1-.1.2-.3.2-.6s0-.5-.2-.6c-.2-.1-.4-.2-.7-.2h-1.1v1.6h1.1Z"/>
    <path fill="#ffbdcb" d="M16.1,263.9v.5h-2.4v1.4h2.2v.5h-2.2v1.5h2.4v.5h-3v-4.3h3Z"/>
    <path fill="#ffbdcb" d="M24.6,263.9c.4,0,.7.1,1,.3.2.2.3.5.3.8s0,.5-.2.7c-.1.2-.3.3-.6.4h0c.1,0,.2,0,.3.1,0,0,.1.1.2.2s0,.2.1.3c0,0,0,.2,0,.3,0,.1,0,.2,0,.3,0,.1,0,.2,0,.3,0,.1,0,.2,0,.3,0,0,0,.2.1.2h-.6s0-.1,0-.2c0,0,0-.2,0-.3,0,0,0-.2,0-.3,0-.1,0-.2,0-.3,0-.1,0-.2,0-.3,0,0,0-.2-.1-.2,0,0-.1-.1-.2-.2s-.2,0-.3,0h-1.4v1.8h-.6v-4.3h2ZM24.7,265.8c.1,0,.2,0,.3-.1s.2-.1.2-.2c0,0,0-.2,0-.4s0-.4-.2-.5c-.1-.1-.3-.2-.6-.2h-1.4v1.5h1.2c.1,0,.3,0,.4,0Z"/>
    <path fill="#ffbdcb" d="M33,263.9v3.8h2.3v.5h-2.8v-4.3h.6Z"/>
    <path fill="#ffbdcb" d="M43.3,263.9l1.7,4.3h-.6l-.5-1.3h-1.8l-.5,1.3h-.6l1.7-4.3h.6ZM43.7,266.4l-.7-2h0l-.7,2h1.5Z"/>
    <path fill="#ffbdcb" d="M53.2,264.5c-.2-.1-.4-.2-.7-.2s-.2,0-.4,0c-.1,0-.2,0-.3.1s-.2.1-.2.2c0,0,0,.2,0,.4s0,.2.1.3.2.1.3.2c.1,0,.3,0,.4.1.2,0,.3,0,.5.1s.3,0,.5.1c.2,0,.3.1.4.2s.2.2.3.3c0,.1.1.3.1.5s0,.4-.2.6c-.1.2-.2.3-.4.4-.2.1-.3.2-.5.2s-.4,0-.6,0-.5,0-.7,0c-.2,0-.4-.2-.6-.3s-.3-.3-.4-.5c0-.2-.1-.4-.1-.7h.5c0,.2,0,.3.1.5,0,.1.2.2.3.3.1,0,.2.1.4.2.2,0,.3,0,.5,0s.3,0,.4,0c.1,0,.2,0,.4-.1.1,0,.2-.1.3-.2,0,0,0-.2,0-.4s0-.3-.1-.4c0,0-.2-.2-.3-.2-.1,0-.3-.1-.4-.1s-.3,0-.5-.1-.3,0-.5-.1-.3-.1-.4-.2-.2-.2-.3-.3-.1-.3-.1-.5,0-.4.1-.6c0-.2.2-.3.4-.4.1-.1.3-.2.5-.2.2,0,.4,0,.6,0s.4,0,.6,0c.2,0,.4.1.5.2.1.1.3.3.3.4s.1.4.1.6h-.5c0-.3-.1-.5-.3-.7Z"/>
    <path fill="#ffbdcb" d="M5.5,273.2c.4,0,.8.1,1,.3.2.2.3.5.3.9s-.1.7-.3.9-.5.3-1,.3h-1.3v1.8h-.6v-4.3h1.9ZM5.3,275.3c.3,0,.6,0,.7-.2.1-.1.2-.3.2-.6s0-.5-.2-.6c-.2-.1-.4-.2-.7-.2h-1.1v1.6h1.1Z"/>
    <path fill="#ffbdcb" d="M16.1,273.2v.5h-2.4v1.4h2.2v.5h-2.2v1.5h2.4v.5h-3v-4.3h3Z"/>
    <path fill="#ffbdcb" d="M24.6,273.2c.4,0,.7.1,1,.3.2.2.3.5.3.8s0,.5-.2.7c-.1.2-.3.3-.6.4h0c.1,0,.2,0,.3.1,0,0,.1.1.2.2s0,.2.1.3c0,0,0,.2,0,.3,0,.1,0,.2,0,.3,0,.1,0,.2,0,.3,0,.1,0,.2,0,.3,0,0,0,.2.1.2h-.6s0-.1,0-.2c0,0,0-.2,0-.3,0,0,0-.2,0-.3,0-.1,0-.2,0-.3,0-.1,0-.2,0-.3,0,0,0-.2-.1-.2,0,0-.1-.1-.2-.2s-.2,0-.3,0h-1.4v1.8h-.6v-4.3h2ZM24.7,275.2c.1,0,.2,0,.3-.1s.2-.1.2-.2c0,0,0-.2,0-.4s0-.4-.2-.5c-.1-.1-.3-.2-.6-.2h-1.4v1.5h1.2c.1,0,.3,0,.4,0Z"/>
    <path fill="#ffbdcb" d="M33,273.2v3.8h2.3v.5h-2.8v-4.3h.6Z"/>
    <path fill="#ffbdcb" d="M43.3,273.2l1.7,4.3h-.6l-.5-1.3h-1.8l-.5,1.3h-.6l1.7-4.3h.6ZM43.7,275.7l-.7-2h0l-.7,2h1.5Z"/>
    <path fill="#ffbdcb" d="M53.2,273.8c-.2-.1-.4-.2-.7-.2s-.2,0-.4,0c-.1,0-.2,0-.3.1s-.2.1-.2.2c0,0,0,.2,0,.4s0,.2.1.3.2.1.3.2c.1,0,.3,0,.4.1.2,0,.3,0,.5.1s.3,0,.5.1c.2,0,.3.1.4.2s.2.2.3.3c0,.1.1.3.1.5s0,.4-.2.6c-.1.2-.2.3-.4.4-.2.1-.3.2-.5.2s-.4,0-.6,0-.5,0-.7,0c-.2,0-.4-.2-.6-.3s-.3-.3-.4-.5c0-.2-.1-.4-.1-.7h.5c0,.2,0,.3.1.5,0,.1.2.2.3.3.1,0,.2.1.4.2.2,0,.3,0,.5,0s.3,0,.4,0c.1,0,.2,0,.4-.1.1,0,.2-.1.3-.2,0,0,0-.2,0-.4s0-.3-.1-.4c0,0-.2-.2-.3-.2-.1,0-.3-.1-.4-.1s-.3,0-.5-.1-.3,0-.5-.1-.3-.1-.4-.2-.2-.2-.3-.3-.1-.3-.1-.5,0-.4.1-.6c0-.2.2-.3.4-.4.1-.1.3-.2.5-.2.2,0,.4,0,.6,0s.4,0,.6,0c.2,0,.4.1.5.2.1.1.3.3.3.4s.1.4.1.6h-.5c0-.3-.1-.5-.3-.7Z"/>
    <path fill="#ffbdcb" d="M5.5,282.5c.4,0,.8.1,1,.3.2.2.3.5.3.9s-.1.7-.3.9-.5.3-1,.3h-1.3v1.8h-.6v-4.3h1.9ZM5.3,284.6c.3,0,.6,0,.7-.2.1-.1.2-.3.2-.6s0-.5-.2-.6c-.2-.1-.4-.2-.7-.2h-1.1v1.6h1.1Z"/>
    <path fill="#ffbdcb" d="M16.1,282.5v.5h-2.4v1.4h2.2v.5h-2.2v1.5h2.4v.5h-3v-4.3h3Z"/>
    <path fill="#ffbdcb" d="M24.6,282.5c.4,0,.7.1,1,.3.2.2.3.5.3.8s0,.5-.2.7c-.1.2-.3.3-.6.4h0c.1,0,.2,0,.3.1,0,0,.1.1.2.2s0,.2.1.3c0,0,0,.2,0,.3,0,.1,0,.2,0,.3,0,.1,0,.2,0,.3,0,.1,0,.2,0,.3,0,0,0,.2.1.2h-.6s0-.1,0-.2c0,0,0-.2,0-.3,0,0,0-.2,0-.3,0-.1,0-.2,0-.3,0-.1,0-.2,0-.3,0,0,0-.2-.1-.2,0,0-.1-.1-.2-.2s-.2,0-.3,0h-1.4v1.8h-.6v-4.3h2ZM24.7,284.5c.1,0,.2,0,.3-.1s.2-.1.2-.2c0,0,0-.2,0-.4s0-.4-.2-.5c-.1-.1-.3-.2-.6-.2h-1.4v1.5h1.2c.1,0,.3,0,.4,0Z"/>
    <path fill="#ffbdcb" d="M33,282.5v3.8h2.3v.5h-2.8v-4.3h.6Z"/>
    <path fill="#ffbdcb" d="M43.3,282.5l1.7,4.3h-.6l-.5-1.3h-1.8l-.5,1.3h-.6l1.7-4.3h.6ZM43.7,285.1l-.7-2h0l-.7,2h1.5Z"/>
    <path fill="#ffbdcb" d="M53.2,283.1c-.2-.1-.4-.2-.7-.2s-.2,0-.4,0c-.1,0-.2,0-.3.1s-.2.1-.2.2c0,0,0,.2,0,.4s0,.2.1.3.2.1.3.2c.1,0,.3,0,.4.1.2,0,.3,0,.5.1s.3,0,.5.1c.2,0,.3.1.4.2s.2.2.3.3c0,.1.1.3.1.5s0,.4-.2.6c-.1.2-.2.3-.4.4-.2.1-.3.2-.5.2s-.4,0-.6,0-.5,0-.7,0c-.2,0-.4-.2-.6-.3s-.3-.3-.4-.5c0-.2-.1-.4-.1-.7h.5c0,.2,0,.3.1.5,0,.1.2.2.3.3.1,0,.2.1.4.2.2,0,.3,0,.5,0s.3,0,.4,0c.1,0,.2,0,.4-.1.1,0,.2-.1.3-.2,0,0,0-.2,0-.4s0-.3-.1-.4c0,0-.2-.2-.3-.2-.1,0-.3-.1-.4-.1s-.3,0-.5-.1-.3,0-.5-.1-.3-.1-.4-.2-.2-.2-.3-.3-.1-.3-.1-.5,0-.4.1-.6c0-.2.2-.3.4-.4.1-.1.3-.2.5-.2.2,0,.4,0,.6,0s.4,0,.6,0c.2,0,.4.1.5.2.1.1.3.3.3.4s.1.4.1.6h-.5c0-.3-.1-.5-.3-.7Z"/>
    <path fill="#ffbdcb" d="M5.5,291.9c.4,0,.8.1,1,.3.2.2.3.5.3.9s-.1.7-.3.9-.5.3-1,.3h-1.3v1.8h-.6v-4.3h1.9ZM5.3,293.9c.3,0,.6,0,.7-.2.1-.1.2-.3.2-.6s0-.5-.2-.6c-.2-.1-.4-.2-.7-.2h-1.1v1.6h1.1Z"/>
    <path fill="#ffbdcb" d="M16.1,291.9v.5h-2.4v1.4h2.2v.5h-2.2v1.5h2.4v.5h-3v-4.3h3Z"/>
    <path fill="#ffbdcb" d="M24.6,291.9c.4,0,.7.1,1,.3.2.2.3.5.3.8s0,.5-.2.7c-.1.2-.3.3-.6.4h0c.1,0,.2,0,.3.1,0,0,.1.1.2.2s0,.2.1.3c0,0,0,.2,0,.3,0,.1,0,.2,0,.3,0,.1,0,.2,0,.3,0,.1,0,.2,0,.3,0,0,0,.2.1.2h-.6s0-.1,0-.2c0,0,0-.2,0-.3,0,0,0-.2,0-.3,0-.1,0-.2,0-.3,0-.1,0-.2,0-.3,0,0,0-.2-.1-.2,0,0-.1-.1-.2-.2s-.2,0-.3,0h-1.4v1.8h-.6v-4.3h2ZM24.7,293.8c.1,0,.2,0,.3-.1s.2-.1.2-.2c0,0,0-.2,0-.4s0-.4-.2-.5c-.1-.1-.3-.2-.6-.2h-1.4v1.5h1.2c.1,0,.3,0,.4,0Z"/>
    <path fill="#ffbdcb" d="M33,291.9v3.8h2.3v.5h-2.8v-4.3h.6Z"/>
    <path fill="#ffbdcb" d="M43.3,291.9l1.7,4.3h-.6l-.5-1.3h-1.8l-.5,1.3h-.6l1.7-4.3h.6ZM43.7,294.4l-.7-2h0l-.7,2h1.5Z"/>
    <path fill="#ffbdcb" d="M53.2,292.5c-.2-.1-.4-.2-.7-.2s-.2,0-.4,0c-.1,0-.2,0-.3.1s-.2.1-.2.2c0,0,0,.2,0,.4s0,.2.1.3.2.1.3.2c.1,0,.3,0,.4.1.2,0,.3,0,.5.1s.3,0,.5.1c.2,0,.3.1.4.2s.2.2.3.3c0,.1.1.3.1.5s0,.4-.2.6c-.1.2-.2.3-.4.4-.2.1-.3.2-.5.2s-.4,0-.6,0-.5,0-.7,0c-.2,0-.4-.2-.6-.3s-.3-.3-.4-.5c0-.2-.1-.4-.1-.7h.5c0,.2,0,.3.1.5,0,.1.2.2.3.3.1,0,.2.1.4.2.2,0,.3,0,.5,0s.3,0,.4,0c.1,0,.2,0,.4-.1.1,0,.2-.1.3-.2,0,0,0-.2,0-.4s0-.3-.1-.4c0,0-.2-.2-.3-.2-.1,0-.3-.1-.4-.1s-.3,0-.5-.1-.3,0-.5-.1-.3-.1-.4-.2-.2-.2-.3-.3-.1-.3-.1-.5,0-.4.1-.6c0-.2.2-.3.4-.4.1-.1.3-.2.5-.2.2,0,.4,0,.6,0s.4,0,.6,0c.2,0,.4.1.5.2.1.1.3.3.3.4s.1.4.1.6h-.5c0-.3-.1-.5-.3-.7Z"/>
    <path fill="#ffbdcb" d="M5.5,301.2c.4,0,.8.1,1,.3.2.2.3.5.3.9s-.1.7-.3.9-.5.3-1,.3h-1.3v1.8h-.6v-4.3h1.9ZM5.3,303.2c.3,0,.6,0,.7-.2.1-.1.2-.3.2-.6s0-.5-.2-.6c-.2-.1-.4-.2-.7-.2h-1.1v1.6h1.1Z"/>
    <path fill="#ffbdcb" d="M16.1,301.2v.5h-2.4v1.4h2.2v.5h-2.2v1.5h2.4v.5h-3v-4.3h3Z"/>
    <path fill="#ffbdcb" d="M24.6,301.2c.4,0,.7.1,1,.3.2.2.3.5.3.8s0,.5-.2.7c-.1.2-.3.3-.6.4h0c.1,0,.2,0,.3.1,0,0,.1.1.2.2s0,.2.1.3c0,0,0,.2,0,.3,0,.1,0,.2,0,.3,0,.1,0,.2,0,.3,0,.1,0,.2,0,.3,0,0,0,.2.1.2h-.6s0-.1,0-.2c0,0,0-.2,0-.3,0,0,0-.2,0-.3,0-.1,0-.2,0-.3,0-.1,0-.2,0-.3,0,0,0-.2-.1-.2,0,0-.1-.1-.2-.2s-.2,0-.3,0h-1.4v1.8h-.6v-4.3h2ZM24.7,303.1c.1,0,.2,0,.3-.1s.2-.1.2-.2c0,0,0-.2,0-.4s0-.4-.2-.5c-.1-.1-.3-.2-.6-.2h-1.4v1.5h1.2c.1,0,.3,0,.4,0Z"/>
    <path fill="#ffbdcb" d="M33,301.2v3.8h2.3v.5h-2.8v-4.3h.6Z"/>
    <path fill="#ffbdcb" d="M43.3,301.2l1.7,4.3h-.6l-.5-1.3h-1.8l-.5,1.3h-.6l1.7-4.3h.6ZM43.7,303.7l-.7-2h0l-.7,2h1.5Z"/>
    <path fill="#ffbdcb" d="M53.2,301.8c-.2-.1-.4-.2-.7-.2s-.2,0-.4,0c-.1,0-.2,0-.3.1s-.2.1-.2.2c0,0,0,.2,0,.4s0,.2.1.3.2.1.3.2c.1,0,.3,0,.4.1.2,0,.3,0,.5.1s.3,0,.5.1c.2,0,.3.1.4.2s.2.2.3.3c0,.1.1.3.1.5s0,.4-.2.6c-.1.2-.2.3-.4.4-.2.1-.3.2-.5.2s-.4,0-.6,0-.5,0-.7,0c-.2,0-.4-.2-.6-.3s-.3-.3-.4-.5c0-.2-.1-.4-.1-.7h.5c0,.2,0,.3.1.5,0,.1.2.2.3.3.1,0,.2.1.4.2.2,0,.3,0,.5,0s.3,0,.4,0c.1,0,.2,0,.4-.1.1,0,.2-.1.3-.2,0,0,0-.2,0-.4s0-.3-.1-.4c0,0-.2-.2-.3-.2-.1,0-.3-.1-.4-.1s-.3,0-.5-.1-.3,0-.5-.1-.3-.1-.4-.2-.2-.2-.3-.3-.1-.3-.1-.5,0-.4.1-.6c0-.2.2-.3.4-.4.1-.1.3-.2.5-.2.2,0,.4,0,.6,0s.4,0,.6,0c.2,0,.4.1.5.2.1.1.3.3.3.4s.1.4.1.6h-.5c0-.3-.1-.5-.3-.7Z"/>
    <path fill="#ffbdcb" d="M5.5,310.5c.4,0,.8.1,1,.3.2.2.3.5.3.9s-.1.7-.3.9-.5.3-1,.3h-1.3v1.8h-.6v-4.3h1.9ZM5.3,312.6c.3,0,.6,0,.7-.2.1-.1.2-.3.2-.6s0-.5-.2-.6c-.2-.1-.4-.2-.7-.2h-1.1v1.6h1.1Z"/>
    <path fill="#ffbdcb" d="M16.1,310.5v.5h-2.4v1.4h2.2v.5h-2.2v1.5h2.4v.5h-3v-4.3h3Z"/>
    <path fill="#ffbdcb" d="M24.6,310.5c.4,0,.7.1,1,.3.2.2.3.5.3.8s0,.5-.2.7c-.1.2-.3.3-.6.4h0c.1,0,.2,0,.3.1,0,0,.1.1.2.2s0,.2.1.3c0,0,0,.2,0,.3,0,.1,0,.2,0,.3,0,.1,0,.2,0,.3,0,.1,0,.2,0,.3,0,0,0,.2.1.2h-.6s0-.1,0-.2c0,0,0-.2,0-.3,0,0,0-.2,0-.3,0-.1,0-.2,0-.3,0-.1,0-.2,0-.3,0,0,0-.2-.1-.2,0,0-.1-.1-.2-.2s-.2,0-.3,0h-1.4v1.8h-.6v-4.3h2ZM24.7,312.5c.1,0,.2,0,.3-.1s.2-.1.2-.2c0,0,0-.2,0-.4s0-.4-.2-.5c-.1-.1-.3-.2-.6-.2h-1.4v1.5h1.2c.1,0,.3,0,.4,0Z"/>
    <path fill="#ffbdcb" d="M33,310.5v3.8h2.3v.5h-2.8v-4.3h.6Z"/>
    <path fill="#ffbdcb" d="M43.3,310.5l1.7,4.3h-.6l-.5-1.3h-1.8l-.5,1.3h-.6l1.7-4.3h.6ZM43.7,313l-.7-2h0l-.7,2h1.5Z"/>
    <path fill="#ffbdcb" d="M53.2,311.1c-.2-.1-.4-.2-.7-.2s-.2,0-.4,0c-.1,0-.2,0-.3.1s-.2.1-.2.2c0,0,0,.2,0,.4s0,.2.1.3.2.1.3.2c.1,0,.3,0,.4.1.2,0,.3,0,.5.1s.3,0,.5.1c.2,0,.3.1.4.2s.2.2.3.3c0,.1.1.3.1.5s0,.4-.2.6c-.1.2-.2.3-.4.4-.2.1-.3.2-.5.2s-.4,0-.6,0-.5,0-.7,0c-.2,0-.4-.2-.6-.3s-.3-.3-.4-.5c0-.2-.1-.4-.1-.7h.5c0,.2,0,.3.1.5,0,.1.2.2.3.3.1,0,.2.1.4.2.2,0,.3,0,.5,0s.3,0,.4,0c.1,0,.2,0,.4-.1.1,0,.2-.1.3-.2,0,0,0-.2,0-.4s0-.3-.1-.4c0,0-.2-.2-.3-.2-.1,0-.3-.1-.4-.1s-.3,0-.5-.1-.3,0-.5-.1-.3-.1-.4-.2-.2-.2-.3-.3-.1-.3-.1-.5,0-.4.1-.6c0-.2.2-.3.4-.4.1-.1.3-.2.5-.2.2,0,.4,0,.6,0s.4,0,.6,0c.2,0,.4.1.5.2.1.1.3.3.3.4s.1.4.1.6h-.5c0-.3-.1-.5-.3-.7Z"/>
    <path fill="#ffbdcb" d="M5.5,319.8c.4,0,.8.1,1,.3.2.2.3.5.3.9s-.1.7-.3.9-.5.3-1,.3h-1.3v1.8h-.6v-4.3h1.9ZM5.3,321.9c.3,0,.6,0,.7-.2.1-.1.2-.3.2-.6s0-.5-.2-.6c-.2-.1-.4-.2-.7-.2h-1.1v1.6h1.1Z"/>
    <path fill="#ffbdcb" d="M16.1,319.8v.5h-2.4v1.4h2.2v.5h-2.2v1.5h2.4v.5h-3v-4.3h3Z"/>
    <path fill="#ffbdcb" d="M24.6,319.8c.4,0,.7.1,1,.3.2.2.3.5.3.8s0,.5-.2.7c-.1.2-.3.3-.6.4h0c.1,0,.2,0,.3.1,0,0,.1.1.2.2s0,.2.1.3c0,0,0,.2,0,.3,0,.1,0,.2,0,.3,0,.1,0,.2,0,.3,0,.1,0,.2,0,.3,0,0,0,.2.1.2h-.6s0-.1,0-.2c0,0,0-.2,0-.3,0,0,0-.2,0-.3,0-.1,0-.2,0-.3,0-.1,0-.2,0-.3,0,0,0-.2-.1-.2,0,0-.1-.1-.2-.2s-.2,0-.3,0h-1.4v1.8h-.6v-4.3h2ZM24.7,321.8c.1,0,.2,0,.3-.1s.2-.1.2-.2c0,0,0-.2,0-.4s0-.4-.2-.5c-.1-.1-.3-.2-.6-.2h-1.4v1.5h1.2c.1,0,.3,0,.4,0Z"/>
    <path fill="#ffbdcb" d="M33,319.8v3.8h2.3v.5h-2.8v-4.3h.6Z"/>
    <path fill="#ffbdcb" d="M43.3,319.8l1.7,4.3h-.6l-.5-1.3h-1.8l-.5,1.3h-.6l1.7-4.3h.6ZM43.7,322.4l-.7-2h0l-.7,2h1.5Z"/>
    <path fill="#ffbdcb" d="M53.2,320.4c-.2-.1-.4-.2-.7-.2s-.2,0-.4,0c-.1,0-.2,0-.3.1s-.2.1-.2.2c0,0,0,.2,0,.4s0,.2.1.3.2.1.3.2c.1,0,.3,0,.4.1.2,0,.3,0,.5.1s.3,0,.5.1c.2,0,.3.1.4.2s.2.2.3.3c0,.1.1.3.1.5s0,.4-.2.6c-.1.2-.2.3-.4.4-.2.1-.3.2-.5.2s-.4,0-.6,0-.5,0-.7,0c-.2,0-.4-.2-.6-.3s-.3-.3-.4-.5c0-.2-.1-.4-.1-.7h.5c0,.2,0,.3.1.5,0,.1.2.2.3.3.1,0,.2.1.4.2.2,0,.3,0,.5,0s.3,0,.4,0c.1,0,.2,0,.4-.1.1,0,.2-.1.3-.2,0,0,0-.2,0-.4s0-.3-.1-.4c0,0-.2-.2-.3-.2-.1,0-.3-.1-.4-.1s-.3,0-.5-.1-.3,0-.5-.1-.3-.1-.4-.2-.2-.2-.3-.3-.1-.3-.1-.5,0-.4.1-.6c0-.2.2-.3.4-.4.1-.1.3-.2.5-.2.2,0,.4,0,.6,0s.4,0,.6,0c.2,0,.4.1.5.2.1.1.3.3.3.4s.1.4.1.6h-.5c0-.3-.1-.5-.3-.7Z"/>
    <path fill="#ffbdcb" d="M5.5,329.2c.4,0,.8.1,1,.3.2.2.3.5.3.9s-.1.7-.3.9-.5.3-1,.3h-1.3v1.8h-.6v-4.3h1.9ZM5.3,331.2c.3,0,.6,0,.7-.2.1-.1.2-.3.2-.6s0-.5-.2-.6c-.2-.1-.4-.2-.7-.2h-1.1v1.6h1.1Z"/>
    <path fill="#ffbdcb" d="M16.1,329.2v.5h-2.4v1.4h2.2v.5h-2.2v1.5h2.4v.5h-3v-4.3h3Z"/>
    <path fill="#ffbdcb" d="M24.6,329.2c.4,0,.7.1,1,.3.2.2.3.5.3.8s0,.5-.2.7c-.1.2-.3.3-.6.4h0c.1,0,.2,0,.3.1,0,0,.1.1.2.2s0,.2.1.3c0,0,0,.2,0,.3,0,.1,0,.2,0,.3,0,.1,0,.2,0,.3,0,.1,0,.2,0,.3,0,0,0,.2.1.2h-.6s0-.1,0-.2c0,0,0-.2,0-.3,0,0,0-.2,0-.3,0-.1,0-.2,0-.3,0-.1,0-.2,0-.3,0,0,0-.2-.1-.2,0,0-.1-.1-.2-.2s-.2,0-.3,0h-1.4v1.8h-.6v-4.3h2ZM24.7,331.1c.1,0,.2,0,.3-.1s.2-.1.2-.2c0,0,0-.2,0-.4s0-.4-.2-.5c-.1-.1-.3-.2-.6-.2h-1.4v1.5h1.2c.1,0,.3,0,.4,0Z"/>
    <path fill="#ffbdcb" d="M33,329.2v3.8h2.3v.5h-2.8v-4.3h.6Z"/>
    <path fill="#ffbdcb" d="M43.3,329.2l1.7,4.3h-.6l-.5-1.3h-1.8l-.5,1.3h-.6l1.7-4.3h.6ZM43.7,331.7l-.7-2h0l-.7,2h1.5Z"/>
    <path fill="#ffbdcb" d="M53.2,329.7c-.2-.1-.4-.2-.7-.2s-.2,0-.4,0c-.1,0-.2,0-.3.1s-.2.1-.2.2c0,0,0,.2,0,.4s0,.2.1.3.2.1.3.2c.1,0,.3,0,.4.1.2,0,.3,0,.5.1s.3,0,.5.1c.2,0,.3.1.4.2s.2.2.3.3c0,.1.1.3.1.5s0,.4-.2.6c-.1.2-.2.3-.4.4-.2.1-.3.2-.5.2s-.4,0-.6,0-.5,0-.7,0c-.2,0-.4-.2-.6-.3s-.3-.3-.4-.5c0-.2-.1-.4-.1-.7h.5c0,.2,0,.3.1.5,0,.1.2.2.3.3.1,0,.2.1.4.2.2,0,.3,0,.5,0s.3,0,.4,0c.1,0,.2,0,.4-.1.1,0,.2-.1.3-.2,0,0,0-.2,0-.4s0-.3-.1-.4c0,0-.2-.2-.3-.2-.1,0-.3-.1-.4-.1s-.3,0-.5-.1-.3,0-.5-.1-.3-.1-.4-.2-.2-.2-.3-.3-.1-.3-.1-.5,0-.4.1-.6c0-.2.2-.3.4-.4.1-.1.3-.2.5-.2.2,0,.4,0,.6,0s.4,0,.6,0c.2,0,.4.1.5.2.1.1.3.3.3.4s.1.4.1.6h-.5c0-.3-.1-.5-.3-.7Z"/>
    <path fill="#ffbdcb" d="M5.5,338.5c.4,0,.8.1,1,.3.2.2.3.5.3.9s-.1.7-.3.9-.5.3-1,.3h-1.3v1.8h-.6v-4.3h1.9ZM5.3,340.5c.3,0,.6,0,.7-.2.1-.1.2-.3.2-.6s0-.5-.2-.6c-.2-.1-.4-.2-.7-.2h-1.1v1.6h1.1Z"/>
    <path fill="#ffbdcb" d="M16.1,338.5v.5h-2.4v1.4h2.2v.5h-2.2v1.5h2.4v.5h-3v-4.3h3Z"/>
    <path fill="#ffbdcb" d="M24.6,338.5c.4,0,.7.1,1,.3.2.2.3.5.3.8s0,.5-.2.7c-.1.2-.3.3-.6.4h0c.1,0,.2,0,.3.1,0,0,.1.1.2.2s0,.2.1.3c0,0,0,.2,0,.3,0,.1,0,.2,0,.3,0,.1,0,.2,0,.3,0,.1,0,.2,0,.3,0,0,0,.2.1.2h-.6s0-.1,0-.2c0,0,0-.2,0-.3,0,0,0-.2,0-.3,0-.1,0-.2,0-.3,0-.1,0-.2,0-.3,0,0,0-.2-.1-.2,0,0-.1-.1-.2-.2s-.2,0-.3,0h-1.4v1.8h-.6v-4.3h2ZM24.7,340.4c.1,0,.2,0,.3-.1s.2-.1.2-.2c0,0,0-.2,0-.4s0-.4-.2-.5c-.1-.1-.3-.2-.6-.2h-1.4v1.5h1.2c.1,0,.3,0,.4,0Z"/>
    <path fill="#ffbdcb" d="M33,338.5v3.8h2.3v.5h-2.8v-4.3h.6Z"/>
    <path fill="#ffbdcb" d="M43.3,338.5l1.7,4.3h-.6l-.5-1.3h-1.8l-.5,1.3h-.6l1.7-4.3h.6ZM43.7,341l-.7-2h0l-.7,2h1.5Z"/>
    <path fill="#ffbdcb" d="M53.2,339.1c-.2-.1-.4-.2-.7-.2s-.2,0-.4,0c-.1,0-.2,0-.3.1s-.2.1-.2.2c0,0,0,.2,0,.4s0,.2.1.3.2.1.3.2c.1,0,.3,0,.4.1.2,0,.3,0,.5.1s.3,0,.5.1c.2,0,.3.1.4.2s.2.2.3.3c0,.1.1.3.1.5s0,.4-.2.6c-.1.2-.2.3-.4.4-.2.1-.3.2-.5.2s-.4,0-.6,0-.5,0-.7,0c-.2,0-.4-.2-.6-.3s-.3-.3-.4-.5c0-.2-.1-.4-.1-.7h.5c0,.2,0,.3.1.5,0,.1.2.2.3.3.1,0,.2.1.4.2.2,0,.3,0,.5,0s.3,0,.4,0c.1,0,.2,0,.4-.1.1,0,.2-.1.3-.2,0,0,0-.2,0-.4s0-.3-.1-.4c0,0-.2-.2-.3-.2-.1,0-.3-.1-.4-.1s-.3,0-.5-.1-.3,0-.5-.1-.3-.1-.4-.2-.2-.2-.3-.3-.1-.3-.1-.5,0-.4.1-.6c0-.2.2-.3.4-.4.1-.1.3-.2.5-.2.2,0,.4,0,.6,0s.4,0,.6,0c.2,0,.4.1.5.2.1.1.3.3.3.4s.1.4.1.6h-.5c0-.3-.1-.5-.3-.7Z"/>
    <path fill="#ffbdcb" d="M5.5,347.8c.4,0,.8.1,1,.3.2.2.3.5.3.9s-.1.7-.3.9-.5.3-1,.3h-1.3v1.8h-.6v-4.3h1.9ZM5.3,349.9c.3,0,.6,0,.7-.2.1-.1.2-.3.2-.6s0-.5-.2-.6c-.2-.1-.4-.2-.7-.2h-1.1v1.6h1.1Z"/>
    <path fill="#ffbdcb" d="M16.1,347.8v.5h-2.4v1.4h2.2v.5h-2.2v1.5h2.4v.5h-3v-4.3h3Z"/>
    <path fill="#ffbdcb" d="M24.6,347.8c.4,0,.7.1,1,.3.2.2.3.5.3.8s0,.5-.2.7c-.1.2-.3.3-.6.4h0c.1,0,.2,0,.3.1,0,0,.1.1.2.2s0,.2.1.3c0,0,0,.2,0,.3,0,.1,0,.2,0,.3,0,.1,0,.2,0,.3,0,.1,0,.2,0,.3,0,0,0,.2.1.2h-.6s0-.1,0-.2c0,0,0-.2,0-.3,0,0,0-.2,0-.3,0-.1,0-.2,0-.3,0-.1,0-.2,0-.3,0,0,0-.2-.1-.2,0,0-.1-.1-.2-.2s-.2,0-.3,0h-1.4v1.8h-.6v-4.3h2ZM24.7,349.8c.1,0,.2,0,.3-.1s.2-.1.2-.2c0,0,0-.2,0-.4s0-.4-.2-.5c-.1-.1-.3-.2-.6-.2h-1.4v1.5h1.2c.1,0,.3,0,.4,0Z"/>
    <path fill="#ffbdcb" d="M33,347.8v3.8h2.3v.5h-2.8v-4.3h.6Z"/>
    <path fill="#ffbdcb" d="M43.3,347.8l1.7,4.3h-.6l-.5-1.3h-1.8l-.5,1.3h-.6l1.7-4.3h.6ZM43.7,350.3l-.7-2h0l-.7,2h1.5Z"/>
    <path fill="#ffbdcb" d="M53.2,348.4c-.2-.1-.4-.2-.7-.2s-.2,0-.4,0c-.1,0-.2,0-.3.1s-.2.1-.2.2c0,0,0,.2,0,.4s0,.2.1.3.2.1.3.2c.1,0,.3,0,.4.1.2,0,.3,0,.5.1s.3,0,.5.1c.2,0,.3.1.4.2s.2.2.3.3c0,.1.1.3.1.5s0,.4-.2.6c-.1.2-.2.3-.4.4-.2.1-.3.2-.5.2s-.4,0-.6,0-.5,0-.7,0c-.2,0-.4-.2-.6-.3s-.3-.3-.4-.5c0-.2-.1-.4-.1-.7h.5c0,.2,0,.3.1.5,0,.1.2.2.3.3.1,0,.2.1.4.2.2,0,.3,0,.5,0s.3,0,.4,0c.1,0,.2,0,.4-.1.1,0,.2-.1.3-.2,0,0,0-.2,0-.4s0-.3-.1-.4c0,0-.2-.2-.3-.2-.1,0-.3-.1-.4-.1s-.3,0-.5-.1-.3,0-.5-.1-.3-.1-.4-.2-.2-.2-.3-.3-.1-.3-.1-.5,0-.4.1-.6c0-.2.2-.3.4-.4.1-.1.3-.2.5-.2.2,0,.4,0,.6,0s.4,0,.6,0c.2,0,.4.1.5.2.1.1.3.3.3.4s.1.4.1.6h-.5c0-.3-.1-.5-.3-.7Z"/>
    <path fill="#ffbdcb" d="M5.5,357.1c.4,0,.8.1,1,.3.2.2.3.5.3.9s-.1.7-.3.9-.5.3-1,.3h-1.3v1.8h-.6v-4.3h1.9ZM5.3,359.2c.3,0,.6,0,.7-.2.1-.1.2-.3.2-.6s0-.5-.2-.6c-.2-.1-.4-.2-.7-.2h-1.1v1.6h1.1Z"/>
    <path fill="#ffbdcb" d="M16.1,357.1v.5h-2.4v1.4h2.2v.5h-2.2v1.5h2.4v.5h-3v-4.3h3Z"/>
    <path fill="#ffbdcb" d="M24.6,357.1c.4,0,.7.1,1,.3.2.2.3.5.3.8s0,.5-.2.7c-.1.2-.3.3-.6.4h0c.1,0,.2,0,.3.1,0,0,.1.1.2.2s0,.2.1.3c0,0,0,.2,0,.3,0,.1,0,.2,0,.3,0,.1,0,.2,0,.3,0,.1,0,.2,0,.3,0,0,0,.2.1.2h-.6s0-.1,0-.2c0,0,0-.2,0-.3,0,0,0-.2,0-.3,0-.1,0-.2,0-.3,0-.1,0-.2,0-.3,0,0,0-.2-.1-.2,0,0-.1-.1-.2-.2s-.2,0-.3,0h-1.4v1.8h-.6v-4.3h2ZM24.7,359.1c.1,0,.2,0,.3-.1s.2-.1.2-.2c0,0,0-.2,0-.4s0-.4-.2-.5c-.1-.1-.3-.2-.6-.2h-1.4v1.5h1.2c.1,0,.3,0,.4,0Z"/>
    <path fill="#ffbdcb" d="M33,357.1v3.8h2.3v.5h-2.8v-4.3h.6Z"/>
    <path fill="#ffbdcb" d="M43.3,357.1l1.7,4.3h-.6l-.5-1.3h-1.8l-.5,1.3h-.6l1.7-4.3h.6ZM43.7,359.6l-.7-2h0l-.7,2h1.5Z"/>
    <path fill="#ffbdcb" d="M53.2,357.7c-.2-.1-.4-.2-.7-.2s-.2,0-.4,0c-.1,0-.2,0-.3.1s-.2.1-.2.2c0,0,0,.2,0,.4s0,.2.1.3.2.1.3.2c.1,0,.3,0,.4.1.2,0,.3,0,.5.1s.3,0,.5.1c.2,0,.3.1.4.2s.2.2.3.3c0,.1.1.3.1.5s0,.4-.2.6c-.1.2-.2.3-.4.4-.2.1-.3.2-.5.2s-.4,0-.6,0-.5,0-.7,0c-.2,0-.4-.2-.6-.3s-.3-.3-.4-.5c0-.2-.1-.4-.1-.7h.5c0,.2,0,.3.1.5,0,.1.2.2.3.3.1,0,.2.1.4.2.2,0,.3,0,.5,0s.3,0,.4,0c.1,0,.2,0,.4-.1.1,0,.2-.1.3-.2,0,0,0-.2,0-.4s0-.3-.1-.4c0,0-.2-.2-.3-.2-.1,0-.3-.1-.4-.1s-.3,0-.5-.1-.3,0-.5-.1-.3-.1-.4-.2-.2-.2-.3-.3-.1-.3-.1-.5,0-.4.1-.6c0-.2.2-.3.4-.4.1-.1.3-.2.5-.2.2,0,.4,0,.6,0s.4,0,.6,0c.2,0,.4.1.5.2.1.1.3.3.3.4s.1.4.1.6h-.5c0-.3-.1-.5-.3-.7Z"/>
  </g>
</svg>